<?xml version="1.0" standalone="no"?>
<!DOCTYPE svg PUBLIC "-//W3C//DTD SVG 20010904//EN"
 "http://www.w3.org/TR/2001/REC-SVG-20010904/DTD/svg10.dtd">
<svg version="1.0" xmlns="http://www.w3.org/2000/svg"
 width="300.000000pt" height="300.000000pt" viewBox="0 0 300.000000 300.000000"
 preserveAspectRatio="xMidYMid meet">
<metadata>
Created by potrace 1.10, written by Peter Selinger 2001-2011
</metadata>
<g transform="translate(0.000000,300.000000) scale(0.100000,-0.100000)"
fill="#000000" stroke="none">
<path d="M1345 2868 c-44 -4 -102 -13 -130 -19 -97 -22 -271 -131 -356 -222
-74 -80 -272 -452 -308 -578 l-18 -63 -72 -12 c-92 -16 -118 -41 -111 -109 1
-11 5 -24 9 -30 13 -17 40 -98 47 -140 13 -76 60 -134 144 -175 25 -12 46 -24
48 -25 2 -2 -6 -21 -16 -42 -11 -21 -27 -73 -36 -116 -18 -85 -22 -242 -6
-217 8 13 10 13 10 -2 0 -9 -5 -18 -10 -20 -6 -2 -8 -21 -4 -50 4 -27 11 -45
16 -42 6 4 8 -2 4 -14 -5 -14 2 -38 18 -69 15 -26 26 -55 26 -64 0 -9 6 -29
14 -44 12 -23 15 -24 19 -8 3 11 5 6 6 -13 1 -34 55 -114 77 -114 8 0 14 -9
14 -20 0 -11 7 -20 16 -20 9 0 12 5 8 13 -5 9 -3 9 7 -1 9 -9 13 -31 12 -66
-2 -38 2 -58 12 -66 8 -7 15 -18 15 -25 0 -21 30 -12 30 9 1 13 7 4 15 -20 18
-49 45 -103 45 -89 0 6 5 3 10 -5 6 -9 10 -10 10 -3 0 6 -4 15 -10 18 -5 3
-10 15 -10 26 0 13 4 18 12 13 8 -5 9 -2 4 12 -17 42 -17 49 -2 30 19 -24 20
-38 3 -55 -10 -11 -9 -13 1 -7 7 5 15 -2 21 -17 13 -34 36 -48 28 -17 -4 15
-2 19 4 13 12 -12 1 -90 -16 -106 -7 -8 -9 -20 -4 -32 8 -20 8 -20 9 0 1 19 2
18 10 -2 5 -13 17 -23 27 -23 15 0 16 2 3 10 -12 8 -12 10 3 16 9 3 17 10 17
16 0 5 -5 6 -12 2 -7 -4 -8 -3 -4 4 4 7 1 12 -8 12 -9 0 -16 7 -16 15 0 8 5
15 11 15 5 0 7 -4 4 -10 -3 -5 6 -12 20 -16 14 -3 24 -9 21 -12 -3 -3 2 -11
12 -18 13 -9 19 -9 24 -1 5 7 8 3 8 -10 0 -27 -15 -30 -24 -7 -4 9 -9 14 -13
10 -9 -9 -4 -89 6 -96 4 -3 15 -18 24 -35 9 -16 16 -24 17 -17 0 8 5 10 13 6
6 -4 5 1 -4 12 -30 36 -40 62 -27 70 7 4 10 3 5 -1 -4 -5 3 -19 15 -32 17 -19
24 -21 37 -10 9 7 12 8 8 1 -18 -31 90 -58 123 -31 17 13 20 41 6 54 -5 5 -6
2 -1 -6 6 -10 4 -13 -6 -9 -8 3 -23 0 -34 -8 -15 -11 -20 -11 -27 -1 -6 9 -8
9 -8 0 0 -7 -10 -13 -22 -13 -17 0 -19 3 -9 9 11 7 9 11 -8 20 -12 7 -19 15
-17 19 3 5 1 14 -3 21 -6 9 -11 10 -15 2 -4 -6 -3 -11 2 -11 5 0 9 -7 9 -15 0
-8 -4 -15 -8 -15 -11 0 -22 33 -20 61 2 29 -22 55 -40 43 -9 -5 -10 1 -5 22 4
16 3 25 -1 19 -11 -14 -36 -18 -27 -4 3 6 3 14 -2 18 -5 3 -14 21 -21 39 -9
26 -9 32 0 29 7 -2 14 -16 17 -32 5 -26 40 -47 40 -24 0 15 30 10 36 -6 4 -8
10 -15 16 -15 5 0 6 4 3 10 -3 5 -2 10 3 10 6 0 13 -8 17 -18 6 -16 7 -16 19
1 14 17 32 25 21 8 -3 -5 -1 -12 5 -16 6 -4 7 -11 4 -17 -4 -7 2 -8 17 -3 40
13 70 14 62 2 -4 -7 0 -8 13 -3 10 5 27 9 36 10 9 0 24 10 33 21 15 19 15 19
10 -10 -3 -16 -2 -24 1 -17 8 16 24 15 24 -2 0 -8 6 -16 13 -19 9 -3 13 6 14
29 1 19 -3 34 -8 34 -5 0 -2 12 8 27 17 28 17 28 -3 10 -11 -9 -24 -14 -29
-10 -4 5 -5 2 -1 -5 6 -10 2 -13 -15 -10 -17 2 -25 -3 -30 -22 -6 -23 -7 -22
-9 10 -2 24 -4 28 -7 13 -2 -12 -12 -27 -20 -35 -14 -11 -16 -11 -10 4 5 13 0
16 -21 15 -16 -2 -37 6 -51 19 -23 21 -51 23 -51 3 0 -21 -30 -6 -54 26 -21
27 -31 33 -44 26 -25 -14 -86 21 -111 64 -11 20 -25 33 -31 30 -5 -3 -24 23
-41 57 -17 35 -39 70 -48 78 -24 21 -144 197 -170 248 -14 27 -19 51 -15 64 5
17 8 18 16 7 8 -11 9 -10 4 4 -6 19 22 87 37 87 5 0 7 9 4 21 -4 15 -2 19 8
15 9 -3 12 0 8 10 -3 7 -10 14 -15 14 -6 0 -4 8 3 18 13 16 13 16 -7 -1 -11
-9 -25 -17 -30 -17 -5 1 7 14 26 31 22 18 27 27 15 23 -18 -6 -17 -4 4 19 30
33 18 35 -23 4 -40 -30 -56 -39 -56 -33 0 3 27 25 60 49 33 24 57 47 53 50 -3
4 0 7 7 7 7 0 10 3 7 6 -4 4 -31 -14 -61 -40 -30 -25 -57 -46 -59 -46 -3 0 -1
15 4 32 11 40 11 40 0 34 -5 -3 -9 38 -10 91 -1 54 -4 100 -7 102 -3 3 -4 -58
-3 -136 0 -78 -2 -147 -6 -152 -12 -20 -25 -11 -24 17 0 20 2 22 7 10 4 -9 8
36 8 100 l2 117 -8 -98 c-4 -54 -11 -101 -14 -104 -6 -6 -10 124 -6 177 1 14
8 35 16 48 8 12 13 26 10 30 -3 4 0 14 6 22 8 12 9 11 4 -4 -6 -16 -4 -17 9
-6 12 10 24 10 63 -1 51 -15 271 -19 336 -6 48 9 121 41 130 56 4 6 12 9 17 5
6 -3 -3 -16 -18 -27 -28 -22 -35 -38 -20 -53 4 -4 7 -18 7 -31 0 -16 4 -22 12
-17 8 5 9 2 5 -9 -4 -10 -1 -30 5 -45 6 -15 10 -31 9 -36 -1 -5 7 -6 17 -4 10
3 27 -1 37 -8 10 -8 33 -14 49 -14 22 0 41 -10 63 -34 52 -53 18 -62 -75 -20
-31 14 -67 37 -81 50 -13 13 -29 24 -34 24 -7 0 -7 -4 1 -12 19 -19 14 -30 -8
-18 -14 8 -20 8 -20 0 0 -6 -4 -9 -9 -5 -5 3 -12 1 -16 -5 -4 -6 9 -10 33 -10
24 0 58 -10 87 -26 26 -15 61 -30 79 -34 21 -4 31 -12 30 -23 -1 -10 6 -17 17
-17 21 0 26 25 7 34 -7 3 -2 3 11 0 16 -4 21 -3 17 5 -4 6 0 11 9 11 9 0 14
-4 11 -9 -3 -5 1 -12 9 -15 17 -6 73 3 80 14 5 9 -32 6 -41 -3 -13 -13 -26 -7
-22 10 4 22 104 29 112 7 7 -17 -6 -18 -22 -2 -7 7 -12 8 -12 2 0 -6 12 -17
28 -24 25 -12 26 -13 7 -20 -13 -5 -24 -3 -30 5 -7 8 -18 9 -35 3 -14 -5 -39
-8 -57 -6 -18 1 -38 -3 -45 -10 -15 -15 -41 -15 -56 0 -9 9 -12 9 -12 -2 0 -8
-13 0 -31 18 -34 35 -37 36 -59 22 -12 -8 -11 -10 8 -10 12 0 22 -4 22 -10 0
-12 -47 -13 -54 -1 -3 5 -24 8 -46 7 -25 0 -42 4 -45 13 -4 9 -11 7 -26 -10
-11 -13 -18 -19 -15 -14 2 6 0 17 -5 25 -8 13 -11 12 -20 -4 -9 -15 -13 -16
-20 -5 -7 11 -9 11 -9 -2 0 -8 -16 -21 -35 -29 -19 -7 -32 -16 -30 -19 1 -3
-8 -20 -21 -36 -13 -17 -24 -25 -24 -19 0 6 9 19 20 29 20 18 20 18 0 32 -34
24 -81 -16 -79 -69 0 -13 3 -17 6 -11 2 7 3 15 1 17 -2 3 6 12 17 20 11 8 20
20 20 27 0 7 6 14 13 17 11 3 10 -3 -2 -26 -24 -46 -20 -66 17 -86 l32 -18
-26 25 -26 24 51 30 c28 17 65 33 81 37 28 6 31 3 47 -36 10 -23 15 -44 12
-47 -7 -8 -34 29 -34 46 0 7 -4 13 -10 13 -5 0 -6 -7 -3 -17 4 -11 3 -14 -5
-9 -7 4 -12 15 -13 24 0 10 -3 12 -5 5 -8 -18 16 -59 26 -44 5 10 9 9 13 -3 3
-8 2 -18 -3 -21 -6 -3 2 -17 18 -30 18 -16 22 -24 12 -24 -17 0 -59 29 -44 30
5 0 0 4 -11 8 -11 5 -23 4 -26 -1 -4 -6 -9 -6 -13 1 -4 6 -3 11 3 11 6 0 8 8
4 18 -6 16 -5 16 14 -1 31 -27 37 -20 11 12 -26 34 -41 40 -31 13 6 -15 5 -15
-11 -3 -15 12 -17 12 -14 0 2 -9 -4 -13 -17 -11 -18 3 -17 1 6 -23 14 -14 32
-27 40 -29 8 -1 23 -7 33 -13 17 -10 15 -11 -17 -11 -20 0 -37 4 -37 10 0 5
-3 7 -8 4 -10 -6 -82 28 -93 45 -7 11 -9 9 -9 -6 0 -17 -2 -17 -10 -5 -9 13
-10 13 -10 -1 0 -24 33 -115 37 -102 2 6 -3 27 -11 47 -19 45 -4 56 32 25 15
-13 28 -27 30 -31 2 -4 11 -5 20 -2 9 2 7 -1 -5 -7 -25 -13 -29 -24 -13 -34 6
-4 8 -11 5 -16 -4 -5 -2 -9 3 -9 5 0 9 -6 9 -12 0 -7 10 -46 22 -86 18 -58 28
-75 48 -83 13 -5 22 -13 19 -18 -10 -16 96 -103 164 -135 56 -27 78 -31 160
-34 60 -2 90 0 81 6 -7 5 -22 7 -33 4 -18 -4 -20 -1 -16 26 3 22 1 29 -6 23
-6 -5 -40 -11 -76 -14 -46 -4 -56 -3 -35 3 23 7 18 8 -22 4 -46 -5 -59 -2 -95
21 -37 24 -88 75 -74 75 3 0 20 -14 38 -30 18 -17 41 -30 51 -30 10 0 16 -3
14 -7 -3 -5 12 -8 33 -8 21 -1 37 2 34 6 -2 4 21 6 51 6 30 -1 49 -5 42 -9 -9
-6 -9 -8 0 -8 6 0 15 5 18 10 4 6 14 8 24 5 9 -3 33 3 54 14 20 10 35 15 32
12 -2 -4 19 4 48 18 50 25 97 34 97 20 0 -4 7 -9 15 -13 9 -3 15 0 15 10 0 8
-4 12 -10 9 -5 -3 -10 -2 -10 4 0 14 18 23 24 12 9 -14 42 -2 64 22 24 27 35
68 17 61 -7 -3 -11 -13 -8 -23 3 -10 -2 -21 -10 -24 -10 -4 -17 2 -21 16 -3
12 -1 23 3 25 22 7 106 95 106 110 1 9 6 16 13 15 6 -2 15 9 18 23 4 14 17 29
30 34 15 6 22 15 18 24 -3 8 -1 17 5 21 6 3 11 15 11 27 0 26 -29 88 -42 88
-5 0 -6 -4 -3 -10 11 -17 -7 -11 -21 8 -11 14 -13 15 -14 1 0 -8 5 -20 12 -27
9 -9 9 -12 0 -12 -6 0 -18 13 -27 29 -20 39 -38 51 -25 17 7 -21 6 -26 -5 -26
-8 0 -15 5 -15 11 0 5 -4 8 -9 5 -13 -8 -61 11 -61 24 0 6 -9 20 -20 32 -11
12 -20 18 -20 12 0 -5 -4 -3 -9 5 -10 16 -61 24 -61 9 0 -5 9 -7 19 -3 11 3
22 1 26 -4 3 -7 0 -8 -9 -5 -9 4 -16 1 -16 -6 0 -7 8 -10 19 -7 12 3 27 -4 40
-19 30 -35 26 -39 -15 -15 -21 13 -44 19 -55 16 -18 -6 -21 -3 -23 28 -1 6 -5
15 -11 19 -14 10 -5 16 31 20 43 5 104 48 104 74 0 12 -11 38 -25 58 -33 49
-10 37 77 -41 36 -32 88 -76 115 -98 61 -49 103 -102 103 -128 0 -16 -3 -17
-15 -7 -11 9 -15 9 -15 1 0 -7 -4 -9 -10 -6 -5 3 -10 -1 -10 -9 0 -9 5 -16 10
-16 6 0 10 -5 10 -11 0 -5 -3 -8 -7 -6 -5 3 -9 -9 -11 -26 -3 -28 -7 -57 -11
-79 0 -4 -8 -5 -16 -2 -20 8 -19 -6 2 -21 15 -11 13 -18 -20 -71 -31 -50 -35
-63 -28 -89 l9 -30 1 35 c1 20 11 51 24 70 54 81 78 140 73 178 -5 30 -4 32 3
12 10 -27 10 -26 17 5 16 82 0 129 -68 191 -39 36 -60 74 -41 74 5 0 31 -21
58 -46 36 -32 40 -38 14 -20 -53 38 -58 32 -7 -10 23 -20 44 -38 46 -39 3 -3
9 -29 11 -47 1 -5 6 -8 12 -8 5 0 8 4 4 9 -3 5 -1 12 4 16 13 8 29 -24 24 -46
-3 -11 -1 -19 5 -19 5 0 12 -16 15 -36 5 -27 0 -50 -19 -89 -35 -75 -64 -110
-76 -93 -8 10 -9 9 -5 -3 3 -9 -6 -33 -20 -54 -20 -29 -27 -34 -35 -24 -8 11
-9 10 -4 -4 3 -11 -11 -43 -36 -85 -34 -55 -43 -79 -48 -137 -4 -38 -8 -64 -9
-57 -2 23 -21 12 -21 -13 0 -28 -15 -34 -24 -9 -10 25 -6 41 5 19 7 -14 8 -5
5 32 -3 29 -1 55 4 58 10 6 9 85 -1 85 -6 0 -19 -36 -16 -44 1 -2 -6 -12 -15
-22 -26 -29 -39 -71 -23 -71 8 0 13 3 11 6 -2 3 3 20 11 36 13 29 13 28 8 -25
-2 -30 -6 -72 -7 -92 -2 -20 -7 -40 -12 -45 -5 -5 -6 6 -3 25 4 21 3 31 -3 27
-6 -3 -10 5 -10 19 0 31 -15 42 -17 13 -4 -47 -13 -66 -29 -60 -10 4 -17 -2
-21 -16 -4 -15 -11 -20 -24 -16 -14 5 -18 1 -17 -24 1 -29 28 -55 28 -26 0 16
27 45 41 45 6 0 7 -4 4 -10 -3 -5 -2 -10 3 -10 6 0 13 12 18 28 5 20 8 23 11
9 6 -26 32 -21 43 9 6 14 14 23 19 19 5 -3 16 3 23 13 7 9 20 17 28 17 8 0 24
10 36 22 18 20 21 20 30 5 14 -22 7 -42 -11 -36 -9 4 -22 -7 -35 -28 -11 -18
-20 -30 -20 -26 0 4 -12 1 -27 -7 -15 -8 -31 -11 -36 -8 -6 3 -7 1 -4 -5 4 -5
-12 -24 -35 -41 -24 -18 -43 -37 -43 -44 -1 -7 -6 -11 -13 -9 -7 1 -12 -2 -12
-6 0 -13 -37 -53 -46 -51 -18 4 -75 -24 -84 -40 -6 -12 -19 -17 -40 -15 -24 2
-28 -1 -20 -11 7 -9 6 -16 -5 -25 -10 -9 -15 -9 -15 -1 0 6 -9 11 -20 11 -13
0 -24 10 -30 25 -11 30 -20 33 -13 5 3 -12 -1 -22 -11 -26 -9 -3 -13 -11 -10
-18 3 -6 -3 0 -14 13 l-19 23 -22 -23 -22 -24 30 -13 c17 -6 31 -17 31 -23 0
-8 -6 -7 -17 2 -13 11 -12 5 5 -24 26 -45 26 -44 7 -44 -13 0 -17 7 -17 27 0
3 -12 16 -25 30 -27 26 -24 19 13 -42 21 -32 31 -37 62 -29 1 1 -2 10 -8 22
-19 35 -4 32 19 -3 11 -18 21 -27 21 -20 0 8 5 10 12 6 17 -11 48 -12 42 -2
-7 11 3 10 27 -2 13 -7 19 -7 19 0 0 5 -7 10 -16 10 -9 0 -12 5 -8 12 4 7 3 8
-4 4 -7 -4 -12 -3 -12 2 0 21 15 21 38 0 24 -22 24 -21 -2 14 -27 36 -27 64 0
54 7 -3 16 -1 19 4 4 6 -6 11 -22 11 -24 2 -25 2 -5 6 13 3 29 0 36 -6 6 -6
22 -8 34 -4 13 3 22 1 22 -6 0 -6 4 -11 9 -11 5 0 4 11 -2 24 -11 22 -14 23
-28 10 -21 -19 -30 -18 -22 3 4 11 3 14 -5 9 -7 -4 -12 -1 -12 7 0 7 7 14 15
14 8 0 12 -4 9 -8 -2 -4 0 -10 5 -13 5 -3 11 3 14 14 3 12 1 18 -5 14 -6 -4
-9 -1 -6 6 5 17 48 24 48 7 0 -9 2 -9 9 1 4 7 16 15 27 16 10 2 29 22 41 46
25 46 38 65 28 38 -4 -9 -2 -19 4 -22 13 -8 41 21 41 44 0 20 39 72 40 53 0
-7 -4 -13 -9 -13 -13 0 -21 -39 -9 -47 7 -3 8 -1 4 5 -3 6 1 17 9 24 9 7 25
21 36 31 10 9 19 13 19 8 0 -6 -4 -12 -9 -15 -5 -4 -8 -39 -6 -79 2 -40 0 -63
-5 -52 -6 16 -6 -97 -1 -205 1 -11 13 -15 41 -16 22 -1 40 0 40 1 0 2 -12 10
-26 20 -22 14 -28 15 -35 4 -5 -9 -8 15 -7 58 2 49 6 69 13 62 5 -5 10 -30 9
-54 0 -24 2 -42 7 -40 4 3 22 -9 40 -26 18 -17 35 -26 37 -20 2 6 8 9 13 5 5
-3 9 -1 9 4 0 5 19 17 42 28 31 14 43 15 46 6 2 -6 11 -12 20 -12 10 -1 2 -9
-18 -20 -42 -23 -33 -26 17 -5 46 19 78 18 38 -1 l-30 -15 30 6 c77 16 98 17
91 6 -5 -7 1 -11 13 -11 12 0 21 2 21 5 0 10 -57 33 -99 40 -24 4 -67 18 -95
31 -63 29 -85 31 -83 5 1 -16 5 -18 20 -10 10 6 26 9 35 7 12 -3 4 -11 -25
-26 l-43 -22 0 37 c-1 33 -7 42 -45 70 -41 31 -44 36 -47 85 -3 60 5 144 17
172 7 15 5 17 -6 11 -8 -5 -11 -5 -6 1 5 5 14 9 20 9 6 0 22 15 34 34 26 39
30 34 8 -12 -8 -18 -10 -24 -3 -13 46 67 57 87 46 80 -8 -5 -9 -2 -5 10 4 10
7 23 8 29 0 7 4 3 9 -8 6 -14 9 -15 10 -5 0 8 27 41 60 74 33 32 71 82 84 110
14 28 25 44 26 36 0 -10 5 -7 16 8 8 12 12 28 8 35 -6 9 -4 9 8 -1 12 -10 17
-10 25 0 21 28 23 42 3 18 -18 -21 -21 -21 -15 -5 4 11 11 34 15 50 6 21 8 24
10 10 1 -18 2 -17 11 5 7 16 13 20 17 13 4 -7 8 7 8 30 1 23 2 98 4 167 2 69
0 148 -4 176 -8 55 0 69 44 76 l25 4 -28 8 c-22 7 -31 4 -42 -10 -13 -17 -14
-15 -15 24 0 46 8 50 53 30 43 -21 49 -49 31 -134 -8 -42 -19 -87 -25 -100 -5
-14 -13 -65 -19 -114 -5 -49 -12 -97 -15 -107 -3 -10 1 -4 9 12 8 17 15 47 16
68 0 20 10 71 22 113 18 60 26 74 39 71 12 -3 19 3 23 19 4 13 11 24 17 24 8
0 7 -6 -2 -17 -8 -12 -5 -11 9 3 39 35 49 141 18 185 -18 26 -20 39 -8 39 10
0 42 -87 42 -113 0 -10 4 -16 9 -13 19 12 -12 109 -43 135 -12 10 -13 17 -1
44 9 24 12 100 10 307 -1 230 -5 284 -19 330 -89 277 -107 312 -230 436 -92
91 -204 168 -318 218 -128 56 -340 88 -493 74z m300 -32 c102 -22 188 -52 257
-91 l61 -34 0 -63 0 -63 4 58 c2 31 7 57 10 57 11 0 138 -99 171 -132 32 -34
32 -35 18 -75 -8 -22 -26 -96 -41 -164 -15 -68 -31 -129 -35 -134 -5 -6 -12
-45 -16 -87 l-7 -77 -60 54 c-33 30 -66 55 -74 55 -7 0 -13 9 -13 20 0 11 3
20 8 20 4 0 7 89 6 198 0 235 -2 239 -117 325 -133 99 -244 138 -387 137 -111
0 -127 -3 -223 -34 -68 -22 -210 -97 -222 -117 -3 -4 -8 -32 -11 -61 -3 -29
-12 -70 -20 -91 -8 -20 -14 -54 -14 -75 0 -20 -9 -68 -20 -107 -17 -62 -17
-72 -4 -86 13 -15 12 -17 -12 -23 -37 -10 -105 -57 -140 -99 -58 -69 -67 -81
-86 -124 l-19 -43 -54 0 c-48 0 -55 3 -55 19 0 11 6 26 12 33 7 7 14 24 16 38
7 65 236 479 310 561 52 58 167 138 237 164 24 10 43 20 41 24 -2 3 6 7 17 7
12 1 51 9 87 18 79 19 268 15 375 -8z m-248 -12 c-3 -3 -12 -4 -19 -1 -8 3 -5
6 6 6 11 1 17 -2 13 -5z m100 -1 c-10 -9 -56 -13 -61 -5 -2 4 12 8 32 10 19 1
33 -1 29 -5z m-149 -14 c-10 -5 -18 -15 -18 -22 0 -9 3 -9 8 1 10 15 38 16
157 8 50 -4 101 -7 113 -7 13 1 31 -3 40 -9 15 -9 15 -10 -3 -8 -11 1 -36 0
-55 -1 -33 -3 -33 -4 -10 -11 23 -7 23 -8 3 -9 -29 -1 -54 9 -47 20 3 5 -18 9
-46 9 -33 0 -49 -4 -45 -11 4 -6 21 -8 38 -5 28 5 29 5 9 -4 -30 -13 -85 -7
-90 10 -3 7 0 10 6 6 6 -3 13 -2 17 4 9 15 -21 12 -34 -4 -9 -11 -8 -15 5 -20
9 -3 14 -12 11 -19 -3 -8 1 -14 9 -14 8 0 14 4 14 9 0 4 5 8 10 8 21 0 9 -18
-20 -30 -16 -7 -30 -16 -30 -21 0 -4 12 -1 27 6 25 13 28 13 35 -5 7 -18 28
-24 75 -23 7 1 10 -3 7 -8 -3 -5 -17 -7 -32 -4 -26 5 -26 5 -4 -6 18 -10 25
-9 40 3 9 9 27 14 40 12 14 -3 22 1 22 10 0 8 8 14 18 14 18 -1 102 20 102 26
0 9 -98 -8 -117 -20 -28 -18 -33 -18 -33 2 0 8 5 12 10 9 6 -3 10 -2 10 4 0 5
-8 15 -17 20 -15 9 -16 10 -2 11 9 0 18 -3 22 -6 10 -10 87 -13 87 -3 0 9 -20
13 -54 9 -11 -1 -17 3 -14 11 5 14 67 19 65 4 -1 -5 6 -9 15 -9 10 1 15 -3 11
-9 -4 -6 2 -8 15 -5 15 4 19 2 15 -8 -3 -8 2 -15 11 -15 35 -3 41 -5 38 -17
-1 -7 3 -11 9 -10 6 2 13 -8 15 -22 4 -21 3 -23 -8 -8 -19 24 -40 27 -69 10
-21 -12 -30 -12 -45 -3 -19 12 -19 12 0 6 12 -3 26 2 39 16 l20 21 -23 -7
c-23 -7 -48 -13 -64 -14 -5 -1 -3 -7 3 -14 14 -17 4 -27 -26 -27 -15 0 -22 4
-18 11 4 6 14 8 22 5 8 -3 11 -1 8 4 -9 15 -31 12 -45 -5 -10 -12 -7 -15 16
-21 15 -4 35 -2 45 5 22 13 32 14 25 2 -3 -4 11 -7 31 -5 21 1 42 0 47 -4 6
-3 25 -5 43 -3 18 1 33 -2 33 -8 0 -6 7 -8 15 -5 13 5 13 9 3 23 -8 9 -3 8 11
-4 28 -24 51 -67 50 -92 -1 -16 -2 -16 -6 1 -3 10 -13 33 -24 50 l-18 30 6
-38 c5 -32 3 -38 -8 -32 -8 4 -6 1 4 -7 9 -8 17 -19 17 -25 0 -6 8 -9 18 -6
15 5 15 4 -1 -6 -15 -10 -21 -8 -36 9 -10 11 -22 17 -26 13 -5 -4 -5 -2 -2 4
4 7 -1 18 -10 25 -14 12 -16 12 -11 -2 4 -9 2 -21 -4 -27 -8 -8 -3 -13 16 -18
14 -3 26 -10 26 -15 0 -5 7 -9 15 -9 8 0 15 -4 15 -10 0 -5 -11 -9 -25 -8 -16
2 -24 7 -21 15 3 7 -1 10 -10 6 -7 -3 -14 0 -14 5 0 6 -17 14 -37 17 -21 4
-45 9 -53 12 -8 4 -18 5 -23 5 -4 -1 -23 4 -42 12 -19 8 -35 11 -35 5 0 -5 5
-9 10 -9 6 0 10 -4 10 -10 0 -17 -22 -11 -27 8 -3 14 -25 21 -106 35 -56 9
-127 17 -157 17 -39 0 -51 3 -40 10 8 5 11 10 5 11 -16 2 47 17 78 18 16 0 26
-3 23 -8 -4 -5 3 -7 14 -4 42 11 18 22 -44 20 -35 -1 -62 2 -59 6 3 5 29 7 59
6 29 -2 57 0 61 4 3 4 -1 7 -10 7 -9 0 -17 6 -17 13 0 9 -2 9 -9 -1 -4 -7 -23
-13 -42 -12 -60 1 -113 -7 -117 -18 -2 -7 8 -10 27 -7 32 4 43 -11 16 -21 -8
-4 -12 -10 -9 -15 3 -5 -10 -9 -28 -8 -31 1 -32 1 -8 9 25 8 19 11 -30 13 -18
2 -26 9 -28 25 -2 13 2 22 10 22 10 0 9 3 -2 10 -22 15 -37 12 -45 -7 -5 -15
-4 -16 6 -5 17 16 34 16 20 -1 -6 -8 -7 -18 -3 -22 4 -5 1 -5 -5 -1 -8 4 -13
1 -13 -8 0 -10 6 -13 18 -9 12 4 14 3 7 -5 -5 -6 -26 -12 -45 -14 -20 -2 -34
-8 -33 -15 2 -9 -5 -9 -27 -2 -22 8 -37 7 -64 -6 -20 -10 -36 -23 -36 -30 0
-7 -7 -26 -15 -41 -20 -39 -19 -12 2 34 9 20 15 44 14 52 -1 12 0 12 7 2 5 -7
16 -10 25 -6 15 5 15 8 2 21 -9 8 -13 19 -10 24 4 5 -1 6 -11 2 -13 -5 -15 -2
-9 18 10 31 23 48 49 60 19 9 20 9 3 -4 -13 -11 -14 -16 -5 -20 15 -5 33 12
33 32 0 8 7 17 15 19 13 5 13 3 1 -11 -20 -25 -8 -20 24 9 15 14 30 22 33 19
4 -3 0 -10 -8 -15 -8 -6 -10 -10 -5 -10 21 0 37 18 29 31 -6 12 -5 12 9 0 9
-7 17 -10 17 -7 0 4 5 4 11 0 8 -5 8 -9 -1 -14 -9 -6 -10 -12 -1 -26 10 -18
10 -18 11 3 0 16 4 21 15 17 8 -4 12 -11 8 -17 -3 -6 -1 -7 5 -3 7 4 12 2 12
-5 0 -7 3 -9 6 -6 4 4 3 12 -3 19 -12 16 -11 27 5 56 7 12 17 20 23 16 6 -4 5
-12 -3 -22 -12 -15 -11 -16 5 -3 9 8 15 16 12 19 -7 7 35 31 55 31 12 0 11 -2
-2 -10z m216 2 c3 -4 -6 -6 -19 -3 -14 2 -25 6 -25 8 0 8 39 4 44 -5z m-324
-31 c-6 -11 -8 -25 -5 -30 7 -11 -8 -14 -18 -4 -7 8 14 54 25 54 5 0 4 -9 -2
-20z m260 -50 c-8 -5 -12 -12 -8 -15 3 -3 13 1 21 10 15 14 18 13 32 -9 20
-31 9 -59 -12 -31 -7 11 -13 13 -13 7 0 -7 -7 -12 -16 -12 -8 0 -13 4 -10 9 3
5 -3 11 -14 14 -11 3 -20 10 -20 17 0 6 5 8 10 5 6 -3 10 -1 10 4 0 6 8 11 18
11 14 0 15 -2 2 -10z m335 -60 c3 -5 1 -10 -4 -10 -6 0 -11 5 -11 10 0 6 2 10
4 10 3 0 8 -4 11 -10z m-55 -16 c0 -2 -9 -4 -21 -4 -11 0 -18 4 -14 10 5 8 35
3 35 -6z m-577 -71 c-7 -2 -21 -2 -30 0 -10 3 -4 5 12 5 17 0 24 -2 18 -5z
m-93 -40 c0 -8 -5 -23 -11 -34 -11 -22 -20 -55 -22 -81 -1 -9 -4 -15 -8 -12
-3 2 -6 -12 -5 -31 1 -35 15 -50 17 -17 1 19 0 18 25 110 14 51 22 66 43 74
42 18 315 14 385 -5 70 -20 84 -30 107 -81 19 -43 16 -60 -14 -93 -20 -22 -35
-23 -132 -8 -11 2 -62 4 -113 4 -59 1 -91 5 -87 11 3 6 1 10 -4 10 -6 0 -11
-7 -11 -15 0 -12 -12 -15 -57 -13 l-58 2 53 3 c46 4 52 6 51 26 -1 17 -2 18
-6 5 -3 -11 -14 -18 -30 -18 -22 0 -24 3 -19 25 4 14 2 25 -3 25 -5 0 -11 7
-15 15 -8 21 4 76 16 69 5 -3 7 -12 4 -20 -3 -7 -1 -16 4 -19 6 -4 10 0 10 7
0 7 3 24 5 38 5 21 4 22 -4 5 -9 -19 -9 -19 -19 5 -8 20 -11 21 -11 6 -1 -16
-3 -17 -18 -5 -16 12 -17 12 -6 -2 10 -12 10 -28 1 -72 -8 -37 -15 -52 -21
-44 -6 9 -8 8 -5 -2 8 -30 28 -23 28 10 0 30 1 31 14 14 24 -33 9 -53 -45 -60
-27 -4 -51 -10 -54 -15 -3 -4 11 -4 30 0 19 4 35 4 35 0 0 -4 -19 -10 -43 -13
-24 -3 -50 -9 -58 -12 -10 -4 -15 1 -16 15 -1 11 2 20 6 20 5 0 6 10 4 23 -2
12 7 52 20 89 14 37 23 69 21 71 -3 2 -23 -2 -46 -10 -22 -7 -43 -11 -46 -9
-3 3 1 7 9 9 8 3 28 9 44 14 36 11 55 6 55 -14z m-61 -95 c-16 -45 -26 -85
-23 -90 3 -4 3 -8 0 -8 -2 0 -11 -3 -20 -6 -11 -4 -16 -1 -16 10 0 9 5 16 11
16 5 0 7 5 3 12 -4 7 -3 8 4 4 7 -4 12 -1 12 8 0 9 -6 15 -12 14 -17 -4 -14
38 5 83 10 25 21 35 39 36 l25 2 -28 -81z m-39 68 c0 -2 -6 -21 -14 -43 -14
-41 -16 -120 -3 -140 6 -9 3 -11 -8 -7 -8 4 -22 1 -30 -6 -12 -10 -15 -10 -15
3 0 19 24 111 39 150 6 15 8 27 5 27 -3 0 -2 5 1 10 6 9 25 14 25 6z m1216
-39 c17 -24 41 -61 52 -83 33 -64 93 -254 95 -300 1 -23 5 -40 9 -38 4 3 7
-86 6 -196 -1 -159 -4 -205 -15 -216 -10 -10 -11 -18 -4 -31 9 -16 10 -16 11
4 0 12 5 25 10 28 6 4 10 -6 10 -24 0 -16 -4 -33 -10 -36 -5 -3 -10 -14 -9
-23 0 -14 2 -13 9 3 8 18 9 18 9 2 1 -10 -6 -33 -14 -53 -8 -19 -12 -41 -9
-49 4 -8 1 -15 -5 -15 -7 0 -11 26 -11 73 0 66 -23 163 -43 184 -4 3 8 19 25
35 l33 28 -27 23 c-16 12 -28 27 -28 31 0 5 7 2 17 -5 15 -13 15 -12 4 9 -10
19 -10 30 -1 53 7 16 16 27 20 24 4 -2 6 11 5 30 -2 19 1 32 6 29 5 -3 9 0 9
5 0 6 -6 11 -12 11 -9 0 -9 3 -2 8 6 4 8 18 5 31 -5 17 -14 -6 -34 -84 -14
-60 -29 -110 -31 -112 -13 -13 -83 20 -104 49 -12 18 -44 58 -72 88 -56 62
-58 75 -36 180 28 134 90 380 95 380 3 -1 20 -20 37 -43z m-465 -6 c85 -32 89
-38 78 -91 -12 -57 -20 -121 -12 -95 6 20 6 20 14 0 6 -13 7 -6 3 20 -4 30 -3
36 5 25 8 -11 11 -1 11 42 0 46 4 59 19 68 11 5 22 20 24 32 4 19 5 17 6 -7 3
-46 0 -250 -4 -254 -2 -1 -13 3 -24 11 -14 10 -17 18 -10 28 5 8 9 36 9 62 0
26 5 50 10 53 6 4 8 11 4 16 -12 21 -23 -5 -30 -71 -3 -39 -11 -70 -15 -70 -5
0 -9 3 -9 8 0 8 -29 21 -120 53 -36 12 -71 27 -78 33 -10 7 -16 6 -23 -5 -5
-8 -9 -9 -9 -4 0 6 13 22 29 36 39 34 47 69 27 110 -9 18 -16 33 -16 35 0 4
48 -11 111 -35z m-56 -201 c88 -34 168 -64 178 -67 12 -4 17 -16 17 -39 0 -28
5 -36 27 -45 27 -10 206 -185 278 -271 21 -26 43 -44 48 -41 5 3 7 -14 6 -38
-3 -41 -2 -44 20 -41 25 4 24 -7 -4 -73 -7 -16 -19 -48 -25 -70 -30 -98 -65
-141 -143 -175 -46 -20 -58 -21 -203 -14 -119 5 -159 10 -171 22 -13 14 -13
17 8 27 14 8 18 14 10 18 -8 4 -7 5 1 3 7 -2 12 -9 11 -15 -2 -6 2 -11 7 -11
6 0 10 6 11 13 0 9 2 9 6 -1 2 -6 9 -10 14 -7 5 3 18 1 29 -5 15 -8 25 -8 38
0 16 11 16 11 0 6 -21 -6 -120 33 -112 45 3 5 -3 6 -12 2 -13 -5 -15 -3 -9 8
4 8 5 11 0 7 -11 -10 -62 27 -109 79 -21 24 -41 41 -44 38 -3 -3 19 -30 48
-60 73 -73 51 -70 -29 5 -53 49 -66 57 -77 46 -7 -8 -15 -24 -17 -37 -2 -13
-2 -18 0 -11 3 7 8 10 13 7 4 -3 7 3 6 12 0 9 4 18 10 20 6 2 9 -9 8 -28 -1
-17 0 -28 4 -25 7 7 32 -13 32 -26 0 -5 -6 -6 -12 -3 -7 4 2 -7 20 -24 18 -18
37 -29 43 -25 16 9 -10 34 -29 28 -14 -5 -14 -3 1 6 15 9 22 8 37 -5 11 -10
18 -22 17 -29 -1 -6 6 -10 17 -8 12 2 16 -1 10 -9 -4 -8 -3 -10 5 -5 6 4 9 11
6 15 -2 5 6 9 19 9 13 0 23 -7 23 -15 0 -8 -6 -12 -14 -9 -8 3 -11 1 -8 -4 3
-6 1 -10 -5 -10 -6 0 -9 -4 -6 -8 9 -15 -119 31 -158 57 -42 29 -62 60 -83
131 -9 29 -4 115 6 118 6 2 9 7 6 12 -3 5 6 21 20 37 19 22 24 24 19 8 -7 -19
-6 -20 8 -1 9 12 20 16 28 11 8 -5 11 -4 7 2 -4 5 7 10 24 10 17 0 34 4 37 9
4 5 18 9 32 9 15 0 24 5 22 13 -1 6 2 12 8 12 5 0 10 -4 10 -9 0 -4 24 -7 53
-5 l52 3 -65 -12 c-36 -7 -76 -20 -89 -29 -12 -9 -31 -14 -42 -11 -12 3 -21
-1 -25 -12 -5 -13 -9 -14 -15 -3 -7 10 -9 10 -9 -2 0 -8 -13 -21 -29 -28 -21
-9 -28 -18 -24 -29 4 -9 2 -14 -3 -11 -5 4 -10 -7 -11 -23 -2 -32 12 -47 21
-23 3 8 2 12 -4 9 -12 -7 -12 -3 -4 20 8 21 62 48 80 41 8 -3 13 -2 10 3 -3 4
29 18 72 31 103 31 108 32 164 22 27 -5 48 -5 48 -1 0 5 -12 9 -27 9 -16 0
-35 5 -43 10 -22 14 38 13 80 -1 26 -9 34 -9 41 2 6 10 11 11 17 3 4 -6 19
-14 33 -17 14 -4 31 -18 39 -32 7 -14 18 -25 24 -25 6 0 22 -17 35 -37 21 -33
24 -35 34 -18 7 13 6 24 -2 36 -15 25 -14 30 4 23 19 -8 19 1 -1 31 -20 31
-12 31 41 0 49 -28 55 -43 55 -149 l0 -79 -45 -44 c-25 -23 -62 -50 -83 -59
-48 -21 -236 -32 -256 -15 -10 8 -15 9 -18 1 -2 -8 -11 -8 -31 -1 -17 7 -27 7
-27 1 0 -17 44 -21 190 -17 161 5 170 6 170 20 0 5 7 7 15 4 8 -4 17 -1 21 5
5 7 2 8 -7 2 -8 -4 9 14 37 41 38 37 54 62 62 95 18 76 22 111 12 105 -12 -7
-24 40 -14 56 4 8 3 9 -4 5 -7 -4 -12 -1 -12 8 0 9 -4 16 -8 16 -4 0 -13 14
-19 30 -6 17 -8 28 -3 25 5 -3 11 -1 15 5 8 13 -26 26 -107 40 -34 7 -67 13
-73 14 -64 15 -289 36 -413 39 -78 2 -85 0 -106 -23 -12 -14 -38 -33 -59 -44
-45 -23 -107 -16 -147 17 -15 12 -36 28 -46 35 -11 7 -13 10 -6 7 20 -10 14 3
-8 15 -16 9 -18 8 -14 -5 9 -22 -28 -19 -56 5 -13 11 -32 21 -44 21 -12 1 -30
3 -41 5 -11 2 -51 6 -89 8 -38 3 -71 7 -73 10 -7 7 28 116 38 116 12 0 11 -17
-1 -41 -6 -11 -7 -19 -1 -19 5 0 7 -10 5 -22 -4 -21 -4 -21 4 -3 5 11 7 25 5
31 -2 6 0 22 6 35 7 21 6 25 -9 26 -25 2 -35 -13 -50 -74 -6 -29 -16 -53 -21
-53 -11 0 -11 4 5 65 7 28 12 68 10 90 -2 27 -1 34 5 20 7 -18 8 -18 13 5 3
14 9 34 13 44 6 14 5 17 -3 12 -7 -4 -12 -2 -12 5 0 23 -20 -6 -26 -37 -9 -53
-35 -134 -45 -139 -5 -4 -9 -13 -9 -21 0 -31 20 -1 36 52 9 31 17 54 19 52 4
-3 -23 -141 -28 -143 -1 0 -35 1 -75 3 -64 3 -73 6 -66 20 3 10 11 40 17 67 8
39 20 59 53 90 45 43 119 85 149 85 17 0 17 1 2 18 -10 10 -17 21 -17 24 0 6
156 43 215 52 17 2 113 3 215 1 l185 -4 160 -61z m-997 -270 c-7 -10 -14 -17
-17 -15 -4 4 18 35 25 35 2 0 -1 -9 -8 -20z m127 -43 c171 -7 385 -49 410 -81
6 -7 13 -14 18 -14 4 -1 7 -4 7 -7 0 -3 0 -19 0 -37 l0 -31 -29 41 c-27 36
-88 71 -113 64 -5 -1 -8 2 -8 7 0 4 -11 7 -25 6 -15 -2 -23 1 -19 7 4 6 -2 8
-16 3 -14 -4 -20 -3 -16 3 3 5 -4 10 -17 10 -12 1 -83 4 -157 8 -74 3 -132 3
-128 -1 8 -8 96 -15 175 -15 23 1 44 -4 48 -10 3 -6 -3 -10 -17 -10 -13 0 -48
-3 -78 -6 -40 -4 -51 -3 -40 5 11 8 11 11 2 11 -7 0 -15 -7 -18 -15 -5 -12
-10 -12 -27 -3 -30 16 -67 18 -68 5 -5 -43 -4 -65 3 -61 10 6 10 1 2 -20 -10
-27 -22 -18 -26 22 -5 40 6 81 25 95 7 5 -5 7 -28 4 -22 -2 -47 1 -56 6 -32
20 -179 -42 -179 -75 0 -6 6 -6 15 2 8 7 4 -8 -10 -33 -14 -25 -28 -67 -31
-94 -5 -41 -1 -57 25 -108 29 -55 30 -57 7 -30 -33 39 -45 84 -44 166 0 36 -5
81 -12 101 -8 21 -10 43 -5 54 6 16 9 13 16 -16 4 -19 5 -38 3 -42 -3 -5 -1
-8 4 -8 16 0 22 28 13 53 -13 33 -3 43 49 46 25 2 46 4 47 4 3 3 157 0 298 -6z
m-203 -49 c-7 -7 -12 -22 -12 -34 0 -35 -15 -36 -34 -3 -20 35 -21 33 19 46
34 12 44 8 27 -9z m56 -53 c1 -41 -3 -77 -8 -80 -6 -3 -10 4 -10 17 0 13 -7
35 -14 50 -9 17 -11 30 -5 34 5 3 7 10 3 15 -6 10 13 39 25 39 4 0 8 -34 9
-75z m-294 -19 c9 -27 16 -52 16 -55 -1 -13 -38 69 -42 94 -8 40 7 17 26 -39z
m184 29 c12 -19 26 -35 32 -35 15 0 70 -125 70 -160 0 -29 -14 -68 -29 -80 -3
-3 -12 -17 -20 -32 l-14 -27 -47 24 c-114 58 -147 163 -88 278 21 42 44 66 63
67 6 0 20 -16 33 -35z m182 27 c0 -4 -6 -14 -12 -22 -7 -8 -3 -6 10 4 12 11
22 15 22 9 0 -10 92 -9 109 1 5 4 13 1 17 -6 4 -7 4 -10 -1 -6 -4 4 -14 3 -22
-3 -7 -6 -22 -9 -33 -6 -11 3 -18 1 -14 -4 3 -5 -4 -9 -15 -9 -12 0 -21 4 -21
9 0 13 -25 8 -45 -9 -14 -11 -18 -11 -25 0 -5 7 -3 21 3 32 12 18 27 24 27 10z
m1190 -17 c129 -19 206 -37 202 -49 -2 -5 3 -13 12 -18 9 -5 16 -13 16 -19 0
-5 -10 -3 -22 5 -31 19 -158 57 -169 50 -5 -3 -9 0 -9 7 0 7 -13 10 -34 7 -20
-2 -32 0 -29 6 4 5 -15 7 -48 3 -33 -3 -46 -2 -34 3 36 15 -129 11 -206 -5
-108 -23 -134 -39 -164 -99 -18 -36 -24 -43 -21 -23 3 15 12 42 21 60 l16 32
-23 -23 c-17 -17 -23 -34 -24 -72 0 -27 -3 -52 -6 -56 -6 -6 -20 28 -17 42 1
5 1 18 0 29 -1 14 -4 16 -9 8 -13 -21 5 -148 27 -192 28 -54 35 -53 11 2 -11
23 -19 53 -19 67 1 21 2 21 6 5 3 -11 16 -47 30 -80 14 -32 26 -75 27 -95 2
-19 3 -47 4 -62 2 -20 7 -26 22 -25 11 1 20 8 20 15 0 8 -6 12 -13 9 -8 -3
-14 0 -14 7 0 6 -3 23 -6 38 l-7 26 73 -25 c39 -14 79 -32 87 -39 23 -19 197
-44 312 -44 116 0 165 13 218 58 l35 29 0 -153 c-1 -84 -3 -156 -6 -159 -3 -3
-4 -29 -3 -58 l4 -52 -16 35 c-8 19 -27 63 -41 98 -14 34 -28 60 -30 58 -2 -2
11 -41 30 -87 21 -51 37 -109 40 -149 4 -36 4 -59 1 -52 -3 6 -12 12 -20 12
-9 0 -13 -4 -10 -8 7 -12 -25 -73 -35 -66 -5 3 -9 -3 -9 -13 0 -10 -7 -27 -15
-37 -17 -22 -19 -19 -34 64 l-10 55 5 -55 c3 -30 7 -64 10 -76 4 -14 -3 -31
-19 -49 -15 -18 -24 -23 -25 -14 -8 119 -7 177 3 199 13 27 13 46 0 125 -7 46
-30 79 -46 69 -4 -2 -10 8 -13 21 -4 16 -11 23 -18 19 -6 -4 -8 -3 -5 3 4 6
-1 20 -11 30 -22 26 -131 103 -114 81 10 -13 10 -17 0 -21 -10 -4 -10 -8 2
-16 8 -6 11 -11 7 -11 -14 0 -102 71 -102 82 0 6 7 13 15 15 12 4 12 3 1 -5
-14 -10 -16 -8 39 -40 21 -12 20 -10 -5 12 -31 27 -28 34 6 16 10 -6 19 -8 19
-6 0 10 -61 37 -70 31 -8 -5 -104 39 -120 55 -3 3 -12 6 -20 8 -8 2 -22 10
-31 18 -8 8 -21 14 -27 14 -19 0 -3 -25 26 -42 46 -28 72 -54 83 -88 10 -28 9
-35 -9 -52 -18 -18 -32 -21 -107 -19 -61 1 -96 -3 -120 -15 -32 -15 -34 -14
-58 10 -17 17 -22 28 -14 33 6 3 13 1 15 -5 2 -7 13 -17 25 -23 l22 -11 -22
23 c-14 14 -37 24 -60 26 -21 2 -49 5 -63 7 -14 3 -28 5 -32 5 -3 1 -11 15
-17 33 -8 23 -8 34 0 39 7 4 8 9 1 13 -14 8 -21 -15 -15 -50 3 -22 2 -26 -6
-14 -6 8 -11 23 -11 33 0 9 -5 17 -11 17 -5 0 -8 4 -5 9 3 5 -1 22 -9 37 -9
18 -11 32 -5 39 6 7 7 15 3 18 -3 4 -1 7 6 7 7 0 9 5 5 12 -4 7 -3 8 4 4 12
-7 16 5 13 33 -2 8 2 10 10 5 7 -4 10 -3 6 3 -6 9 31 48 38 41 2 -2 -12 -28
-31 -58 -30 -48 -45 -85 -27 -67 3 4 13 1 21 -6 11 -8 14 -8 9 0 -4 6 -4 13 0
16 5 2 2 2 -4 1 -7 -2 -13 1 -13 7 0 15 50 89 103 152 26 31 45 57 41 57 -4 0
1 6 12 14 12 9 21 11 25 4 4 -7 9 -6 13 1 4 6 2 11 -5 11 -8 0 -7 5 2 17 13
15 12 15 -11 3 -14 -7 -35 -22 -47 -33 -13 -11 -25 -18 -29 -15 -9 9 59 68 79
68 11 0 15 5 11 11 -4 6 -20 8 -39 5 -30 -6 -32 -5 -28 18 4 17 10 22 23 19
10 -3 27 0 37 6 15 9 12 10 -19 11 -20 0 -40 5 -43 10 -8 13 10 13 57 0 26 -8
38 -17 41 -33 4 -18 5 -17 6 6 1 22 7 29 30 33 17 4 32 12 35 19 6 17 98 38
141 33 19 -2 35 -2 35 2 0 9 181 0 290 -15z m-901 -1 c17 -4 29 -9 27 -13 -2
-3 9 -6 25 -6 16 -1 29 4 29 10 0 5 5 2 11 -7 5 -10 15 -18 20 -18 6 0 24 -9
40 -21 16 -11 29 -17 29 -12 0 14 -14 28 -42 42 -16 8 -26 16 -23 19 2 3 11 0
18 -6 8 -7 17 -9 20 -6 3 4 15 -9 26 -27 42 -69 17 -165 -63 -242 -64 -63
-170 -97 -302 -97 -79 0 -207 20 -222 35 -7 6 57 100 103 151 11 13 48 6 39
-7 -8 -13 1 -11 43 10 46 24 108 38 99 23 -3 -6 -2 -13 4 -17 5 -3 10 1 10 9
0 9 5 16 12 16 6 0 8 -3 5 -7 -4 -3 -2 -12 4 -20 9 -11 0 -12 -52 -9 -50 3
-58 2 -39 -6 14 -5 40 -10 59 -10 19 0 44 -4 55 -9 23 -10 -100 -5 -144 6 -23
6 -24 5 -7 -8 16 -13 16 -15 1 -28 -10 -8 -19 -13 -20 -12 -8 5 -65 -10 -70
-18 -3 -5 -10 -9 -17 -9 -6 0 4 15 22 34 41 43 23 61 -20 20 -26 -25 -41 -52
-21 -40 4 2 9 -5 9 -17 2 -21 1 -21 -12 -4 -12 17 -14 17 -29 -4 -18 -26 -11
-46 10 -28 8 6 14 8 14 3 0 -4 10 2 23 13 35 32 56 35 148 22 93 -12 149 -3
233 40 29 15 44 18 58 10 10 -5 17 -6 16 -1 -2 5 6 18 17 28 11 11 16 16 11
12 -29 -22 -25 -3 5 29 l34 37 -44 -37 c-52 -43 -56 -44 -58 -17 -1 13 2 18 9
14 7 -5 8 -2 4 5 -5 7 -15 10 -23 7 -8 -3 -11 -2 -8 3 3 5 1 12 -5 16 -5 3
-10 18 -9 33 0 24 1 25 8 7 5 -11 6 -24 3 -29 -3 -5 0 -6 6 -2 6 3 14 2 17 -4
9 -15 38 9 31 26 -3 7 -1 15 5 18 5 2 4 3 -3 2 -7 -2 -13 -9 -13 -16 0 -7 -6
-15 -14 -18 -10 -3 -12 0 -8 12 4 10 3 15 -3 11 -13 -8 -13 5 0 25 7 12 15 13
37 4 75 -30 70 -30 48 -7 -11 12 -22 21 -25 21 -35 -1 -44 3 -31 11 10 7 8 9
-10 9 -13 0 -57 7 -98 16 -58 12 -83 13 -120 5 -25 -6 -57 -12 -71 -14 -74 -6
-111 -29 -94 -56 3 -5 1 -9 -4 -9 -6 0 -13 -15 -16 -32 -4 -18 -19 -47 -34
-63 -15 -17 -24 -26 -19 -21 4 6 7 18 7 29 0 11 4 15 12 11 8 -5 9 -2 5 10 -4
10 -7 22 -7 27 0 5 -5 9 -11 9 -5 0 -8 -4 -5 -8 2 -4 0 -14 -6 -22 -7 -11 -8
-6 -4 19 3 18 6 41 7 50 0 12 2 11 9 -4 8 -18 9 -18 9 -2 1 23 24 47 45 47 9
0 16 5 16 11 0 5 -6 7 -12 3 -10 -5 -10 -3 0 7 9 9 15 10 20 3 5 -7 33 -4 92
11 95 25 123 28 169 19z m71 2 c0 -3 -4 -8 -10 -11 -5 -3 -10 -1 -10 4 0 6 5
11 10 11 6 0 10 -2 10 -4z m176 -98 c-7 -79 -32 -131 -94 -200 -43 -48 -140
-97 -202 -103 l-45 -5 48 14 c82 24 155 65 192 108 41 48 74 113 77 151 1 15
6 27 11 27 5 0 7 18 3 40 -4 27 -3 40 5 40 9 0 10 -20 5 -72z m-272 46 c15
-14 16 -14 16 0 0 9 5 16 10 16 6 0 10 -4 10 -10 0 -5 7 -6 17 -3 12 5 14 3 8
-8 -7 -12 -6 -12 7 -1 15 12 16 9 13 -29 -6 -51 -9 -55 -38 -42 -12 6 -63 10
-112 9 -75 -1 -99 -5 -142 -27 -40 -20 -53 -23 -53 -12 0 8 5 11 10 8 10 -6
14 7 11 34 -2 8 3 10 11 6 10 -6 11 -5 1 6 -18 18 -16 32 3 25 8 -3 12 -2 9 4
-3 6 -5 10 -3 11 2 0 31 3 64 5 34 3 75 9 90 14 42 12 51 12 68 -6z m731 -4
c-3 -5 -16 -10 -28 -9 -21 0 -21 1 -2 9 28 12 37 12 30 0z m-622 -25 c-7 -21
-13 -19 -13 6 0 11 4 18 10 14 5 -3 7 -12 3 -20z m567 10 c0 -2 -26 -12 -58
-23 -43 -14 -59 -16 -59 -7 0 7 7 11 16 8 9 -2 30 5 46 15 25 16 55 19 55 7z
m319 3 c11 -10 14 -10 18 0 3 6 8 12 13 12 15 0 40 -31 40 -48 0 -13 -3 -12
-16 6 -8 12 -20 22 -26 22 -6 0 -3 -9 6 -19 13 -14 14 -21 5 -27 -8 -4 -10 -3
-5 4 4 7 4 12 -1 12 -12 1 -69 50 -57 50 5 0 16 -6 23 -12z m289 -44 c-1 -9
-8 -19 -15 -21 -10 -4 -11 8 -4 57 1 2 6 -1 12 -7 6 -6 9 -19 7 -29z m-739 -8
c-2 -2 -15 -9 -29 -15 -24 -11 -24 -11 -6 3 16 13 49 24 35 12z m-534 -16 c16
-6 23 -14 19 -22 -5 -7 -2 -9 7 -6 8 3 30 -5 49 -18 l34 -24 -55 0 c-51 0 -56
2 -55 23 1 12 6 26 11 30 6 4 -28 7 -75 5 -65 -2 -95 -8 -129 -26 -43 -23 -59
-24 -46 -2 11 17 54 32 120 40 89 11 92 11 120 0z m305 6 c0 -2 -7 -9 -15 -16
-12 -10 -15 -10 -15 4 0 9 7 16 15 16 8 0 15 -2 15 -4z m-320 -41 c0 -8 -7
-15 -15 -15 -16 0 -20 12 -8 23 11 12 23 8 23 -8z m289 -47 c-13 -13 -34 -36
-46 -53 -12 -16 -23 -25 -23 -19 0 6 9 19 20 29 11 10 20 26 20 36 0 10 9 19
23 22 12 2 24 5 26 6 2 0 -7 -9 -20 -21z m1003 -2 c0 -3 5 -27 11 -53 13 -53
14 -102 4 -148 -5 -19 -4 -25 2 -16 7 11 11 9 21 -10 7 -13 17 -27 23 -30 5
-4 10 -26 11 -50 1 -34 -3 -49 -20 -65 l-22 -21 5 38 c3 21 2 46 -2 56 -5 10
-8 20 -7 23 0 3 -9 17 -20 30 -11 14 -18 18 -15 9 4 -13 1 -15 -13 -12 -11 3
-19 8 -18 12 4 14 -14 50 -27 55 -13 5 -13 2 1 -18 9 -14 11 -27 6 -30 -6 -3
-15 7 -20 24 -8 22 -8 33 2 43 8 7 17 28 21 47 13 58 57 148 57 116z m-1209
-20 c-68 -39 -106 -48 -190 -42 -43 2 -80 5 -83 5 -2 1 1 6 8 13 6 6 44 12 84
13 115 4 115 4 98 15 -11 7 -6 8 17 4 17 -3 39 -1 50 5 10 6 27 10 38 11 14 0
7 -8 -22 -24z m72 14 c-3 -5 -11 -10 -16 -10 -6 0 -7 5 -4 10 3 6 11 10 16 10
6 0 7 -4 4 -10z m-405 -3 c0 -2 -12 -14 -27 -28 l-28 -24 24 28 c23 25 31 32
31 24z m840 -103 c0 6 13 -3 29 -18 16 -16 34 -26 39 -22 5 3 18 -2 28 -10 10
-9 13 -13 7 -9 -7 3 -22 1 -34 -6 -12 -6 -19 -7 -16 -2 4 6 -7 23 -23 38 -18
18 -30 23 -30 15 0 -8 -12 -2 -30 15 -16 16 -30 36 -30 44 0 10 11 3 30 -19
16 -19 30 -31 30 -26z m-904 14 c4 -7 4 -10 -1 -6 -4 4 -15 2 -24 -5 -14 -11
-14 -10 -2 6 16 20 18 21 27 5z m-51 -53 l30 -14 -30 6 c-16 3 -37 9 -45 14
-27 15 11 10 45 -6z m288 -42 c-7 -2 -19 -2 -25 0 -7 3 -2 5 12 5 14 0 19 -2
13 -5z m-376 -165 c-3 -8 -6 -5 -6 6 -1 11 2 17 5 13 3 -3 4 -12 1 -19z m1804
-31 c-10 -9 -11 -8 -5 6 3 10 9 15 12 12 3 -3 0 -11 -7 -18z m-1787 -113 c7
-25 8 -26 26 -9 27 25 25 7 -2 -24 -13 -14 -16 -20 -6 -13 13 10 17 10 20 0 4
-10 9 -10 23 2 18 14 18 14 0 -15 l-19 -30 32 29 31 29 -2 -24 c-1 -13 -11
-37 -23 -54 -12 -16 -24 -43 -28 -58 -8 -34 -30 -25 -23 9 2 13 1 24 -3 24 -4
0 -10 18 -14 40 -3 23 -10 39 -14 36 -4 -2 -8 10 -9 27 -1 18 -4 61 -7 97 -5
62 -4 62 3 13 5 -29 12 -65 15 -79z m82 -11 c-39 -33 -55 -28 -21 7 15 16 33
26 38 23 6 -4 -1 -16 -17 -30z m597 -10 c42 -15 53 -15 95 -3 48 14 121 15
134 2 4 -4 4 -31 -1 -60 -6 -41 -5 -55 7 -64 13 -11 14 -9 8 10 -5 14 -3 29 4
37 7 9 9 26 5 45 -8 35 -11 34 80 15 39 -9 81 -17 95 -20 14 -2 52 -14 84 -25
33 -11 67 -20 77 -20 19 0 35 -17 25 -27 -3 -3 -14 0 -23 8 -10 7 -15 9 -11 5
4 -5 3 -15 -3 -23 -9 -10 -8 -13 0 -13 7 0 9 -5 6 -10 -4 -6 -12 -4 -21 5 -9
8 -13 19 -10 24 3 5 -4 11 -17 15 -30 8 -42 7 -33 -1 4 -5 13 -8 19 -8 15 0
16 -27 1 -32 -5 -2 -20 15 -33 37 -23 41 -35 53 -24 23 5 -11 3 -14 -6 -8 -8
4 -17 2 -22 -6 -7 -12 -9 -12 -9 0 0 11 -4 10 -13 -4 -9 -12 -16 -14 -21 -7
-4 6 -14 8 -24 5 -14 -6 -15 -4 -6 8 9 11 9 17 -1 26 -9 8 -16 9 -20 3 -3 -6
-1 -10 4 -10 22 0 10 -18 -14 -22 -29 -6 -31 -1 -8 31 9 14 11 21 4 16 -8 -4
-17 -2 -22 6 -7 9 -8 5 -3 -12 3 -15 1 -30 -5 -34 -6 -3 -8 -12 -4 -18 4 -8 1
-7 -9 1 -11 9 -18 10 -23 2 -3 -5 -1 -10 5 -10 6 0 9 -4 6 -8 -3 -5 13 -8 35
-8 23 1 43 -2 46 -6 8 -14 23 -8 23 8 0 14 3 14 15 4 12 -10 15 -10 15 0 0 9
7 7 22 -6 22 -19 22 -19 8 0 -14 18 -13 19 2 13 11 -4 15 -2 12 7 -3 7 2 13
11 13 9 0 14 -6 11 -14 -3 -8 1 -16 9 -19 8 -4 15 -10 15 -15 0 -11 -227 -12
-234 -1 -3 5 -21 7 -40 6 -20 -2 -36 1 -36 7 0 6 5 7 10 4 6 -3 10 -1 10 4 0
6 -6 11 -12 11 -9 0 -12 15 -10 50 2 27 0 50 -5 50 -4 0 -7 -29 -7 -65 1 -36
-2 -65 -7 -65 -5 0 -9 8 -10 18 0 10 -3 12 -6 5 -3 -8 -23 -13 -52 -13 l-47 0
-2 37 c-2 20 -7 43 -12 52 -7 11 -8 -3 -4 -41 6 -54 5 -58 -14 -58 -16 0 -22
10 -31 50 -6 28 -11 57 -11 65 0 8 -5 17 -11 21 -11 7 -8 -32 7 -84 6 -22 -10
13 -26 56 -21 55 -21 29 -1 -33 19 -58 19 -81 -1 -69 -5 3 -8 15 -5 25 3 12 1
17 -6 12 -6 -4 -8 0 -4 10 3 9 2 19 -3 22 -6 4 -11 18 -11 33 l-1 27 -8 -30
c-6 -25 -8 -26 -9 -7 0 13 -5 20 -11 17 -5 -3 -10 2 -11 12 0 16 -1 16 -9 -2
-5 -12 -9 -14 -9 -6 -1 8 -3 12 -6 9 -3 -3 1 -24 8 -47 8 -22 11 -38 7 -36 -5
3 -14 21 -20 40 -12 36 -30 47 -30 19 0 -8 4 -13 9 -10 8 5 21 -24 21 -49 0
-13 -36 45 -44 73 -6 18 -2 22 36 30 66 15 109 14 161 -5z m-117 -51 c-2 -4 2
-12 9 -19 11 -10 14 -10 18 0 2 7 6 0 9 -14 6 -34 -19 -33 -38 2 -16 29 -18
53 -4 44 6 -4 8 -9 6 -13z m802 -31 c3 -8 -1 -12 -9 -9 -7 2 -15 10 -17 17 -3
8 1 12 9 9 7 -2 15 -10 17 -17z m-978 -7 c0 -8 -5 -12 -10 -9 -6 4 -8 11 -5
16 9 14 15 11 15 -7z m143 -17 c4 3 7 1 7 -6 0 -7 5 -9 10 -6 6 3 10 1 10 -5
0 -8 9 -10 26 -6 18 5 24 3 19 -5 -5 -7 -23 -9 -46 -6 -28 4 -37 2 -33 -6 4
-7 -3 -2 -16 9 -23 23 -19 54 4 35 7 -6 16 -8 19 -4z m515 -17 c3 -12 2 -12
-8 -3 -7 6 -19 9 -26 6 -8 -3 -14 0 -14 7 0 16 43 8 48 -10z m-381 -12 c-3 -8
-6 -5 -6 6 -1 11 2 17 5 13 3 -3 4 -12 1 -19z m-637 -78 c0 -8 -7 -2 -15 14
-8 15 -15 33 -15 40 1 16 29 -36 30 -54z m878 53 l112 -6 0 -37 c0 -22 -5 -37
-12 -37 -7 -1 -56 -6 -108 -12 -167 -19 -261 -15 -335 15 -51 21 -65 31 -66
48 0 20 -1 20 -9 1 -5 -11 -9 -14 -9 -6 -1 11 -4 11 -16 1 -12 -10 -19 -10
-27 -2 -7 7 -21 12 -32 12 -16 0 -18 2 -7 9 8 5 59 10 114 10 55 1 103 3 105
6 7 7 156 6 290 -2z m185 -12 c17 -1 27 -6 27 -17 0 -8 -4 -12 -10 -9 -5 3
-10 0 -11 -7 0 -7 -4 -4 -9 7 -8 19 -9 19 -9 -2 -1 -13 -5 -23 -10 -23 -5 0
-15 -2 -23 -5 -9 -4 -13 5 -14 29 0 25 3 33 15 31 9 -2 28 -4 44 -4z m-723
-21 c0 -5 -7 -10 -16 -10 -8 0 -12 5 -9 10 3 6 10 10 16 10 5 0 9 -4 9 -10z
m822 -14 c21 -30 6 -56 -66 -117 -41 -34 -73 -66 -71 -70 3 -4 -3 -13 -12 -20
-12 -10 -14 -10 -9 -1 10 17 -9 15 -24 -3 -16 -19 -106 -52 -155 -56 -30 -3
-40 0 -40 11 0 16 26 21 36 7 4 -5 7 3 7 17 0 28 -8 32 -26 14 -7 -7 -12 -9
-12 -5 0 4 -16 0 -36 -8 -46 -19 -44 -19 -45 8 -1 21 -1 21 -9 -3 -6 -20 -8
-14 -9 27 -1 28 -6 55 -12 59 -9 5 -10 -9 -7 -49 4 -54 4 -56 -21 -60 -14 -2
1 -4 34 -4 33 0 67 3 75 7 12 6 16 3 16 -10 0 -17 -7 -18 -66 -14 -86 6 -199
24 -228 35 -13 5 -29 6 -35 3 -7 -4 -9 -4 -5 1 5 5 -9 20 -29 33 -21 14 -32
27 -26 29 6 2 9 16 7 29 -3 17 -1 23 6 19 6 -4 9 -13 6 -20 -6 -16 21 -55 38
-55 8 0 19 -7 26 -15 7 -8 16 -12 21 -9 5 3 9 2 9 -3 0 -4 12 -9 28 -10 22 -1
19 3 -23 24 -61 31 -97 58 -88 67 3 3 -1 14 -10 24 -10 10 -14 22 -10 27 5 4
3 5 -3 2 -6 -4 -16 5 -23 19 -7 16 -15 22 -24 17 -6 -4 -4 5 6 21 l19 28 -24
-7 c-20 -7 -21 -6 -9 9 14 17 47 22 53 8 14 -33 152 -88 196 -78 17 4 22 3 14
-2 -10 -7 2 -14 38 -26 51 -17 54 -16 158 9 233 55 337 89 327 106 -8 12 28
-2 37 -15z m28 -2 c0 -8 -4 -12 -10 -9 -5 3 -10 13 -10 21 0 8 5 12 10 9 6 -3
10 -13 10 -21z m17 4 c-3 -8 -6 -5 -6 6 -1 11 2 17 5 13 3 -3 4 -12 1 -19z
m400 -10 c-3 -8 -6 -5 -6 6 -1 11 2 17 5 13 3 -3 4 -12 1 -19z m-1111 -17 c33
-15 66 -31 74 -35 8 -3 2 -4 -15 0 -37 7 -112 41 -120 54 -9 15 -3 13 61 -19z
m912 -81 c1 -67 -2 -99 -13 -121 -9 -16 -20 -27 -24 -24 -10 6 -21 -17 -22
-48 0 -12 -3 -16 -6 -9 -7 17 -23 15 -23 -3 0 -8 -7 -15 -15 -15 -8 0 -15 -4
-15 -10 0 -5 -7 -10 -15 -10 -8 0 -14 -3 -14 -7 3 -19 -2 -36 -8 -30 -3 4 -12
-2 -20 -13 -8 -11 -20 -17 -28 -14 -22 9 -18 68 7 117 l23 42 6 -50 6 -50 1
62 c1 34 6 65 12 68 6 4 8 -15 3 -54 -3 -34 -2 -61 3 -61 5 0 9 30 9 68 -1 74
3 84 80 185 28 36 50 66 50 67 0 0 1 -41 3 -90z m163 67 c-10 -9 -11 -8 -5 6
3 10 9 15 12 12 3 -3 0 -11 -7 -18z m-1547 -12 c4 -14 11 -25 17 -25 5 0 20
-23 33 -51 13 -27 26 -50 30 -50 3 1 6 -1 6 -4 0 -3 0 -12 0 -20 0 -13 -2 -14
-14 -3 -8 7 -14 15 -13 18 1 3 -7 19 -16 37 -9 18 -17 39 -17 47 0 9 -6 13
-14 10 -9 -3 -18 6 -25 27 -13 39 -13 39 -2 39 5 0 12 -11 15 -25z m737 -32
c-42 -10 -75 -12 -100 -7 -33 8 -29 9 39 14 121 10 129 9 61 -7z m765 -30
c-32 -48 -91 -115 -77 -87 5 11 28 42 50 69 23 27 41 54 41 59 0 5 3 7 6 4 3
-4 -6 -23 -20 -45z m-456 -77 c0 -13 -6 -26 -14 -29 -9 -4 -13 0 -11 11 2 9 4
23 4 30 2 23 21 12 21 -12z m407 -38 c-3 -8 -6 -5 -6 6 -1 11 2 17 5 13 3 -3
4 -12 1 -19z m-1327 -4 c0 -8 -4 -12 -10 -9 -5 3 -10 10 -10 16 0 5 5 9 10 9
6 0 10 -7 10 -16z m565 -56 l100 -2 -85 -4 c-95 -4 -190 5 -190 18 0 4 17 4
38 -1 20 -5 82 -10 137 -11z m706 -11 c-13 -12 -20 -15 -16 -7 14 26 28 41 33
35 3 -3 -5 -16 -17 -28z m-1185 -49 c8 -16 14 -33 12 -38 -2 -5 -15 13 -30 41
-14 28 -20 45 -12 38 9 -7 22 -26 30 -41z m901 10 c-3 -7 -5 -2 -5 12 0 14 2
19 5 13 2 -7 2 -19 0 -25z m-948 -19 c-16 -10 -23 -4 -14 10 3 6 11 8 17 5 6
-4 5 -9 -3 -15z m526 -20 c22 -6 15 -7 -25 -3 -30 4 -62 10 -70 15 -17 9 49 1
95 -12z m-505 -25 c0 -12 -2 -12 -14 -2 -8 7 -12 16 -9 21 7 11 23 -2 23 -19z
m1066 -2 c-17 -16 -18 -16 -5 5 7 12 15 20 18 17 3 -2 -3 -12 -13 -22z m-79
-34 c-3 -8 -6 -5 -6 6 -1 11 2 17 5 13 3 -3 4 -12 1 -19z m-748 -119 c-18 -11
-22 -5 -14 22 7 20 8 21 17 4 8 -12 7 -20 -3 -26z m732 4 c-8 -15 -10 -15 -11
-2 0 17 10 32 18 25 2 -3 -1 -13 -7 -23z m-85 -92 c-15 -15 -16 -13 -4 19 9
26 13 30 16 16 2 -10 -3 -26 -12 -35z m-230 -138 c-10 -10 -19 5 -10 18 6 11
8 11 12 0 2 -7 1 -15 -2 -18z m-226 13 c0 -2 -7 -7 -16 -10 -8 -3 -12 -2 -9 4
6 10 25 14 25 6z m143 -23 c-7 -2 -21 -2 -30 0 -10 3 -4 5 12 5 17 0 24 -2 18
-5z m37 -26 c0 -5 4 -6 8 -3 10 6 10 -40 0 -49 -4 -4 -13 4 -19 19 -7 14 -16
26 -21 26 -5 0 0 -15 11 -34 23 -36 27 -51 11 -41 -5 3 -10 0 -10 -7 0 -7 -5
-5 -11 6 -8 13 -13 15 -19 6 -5 -8 -13 -3 -26 19 -10 17 -21 26 -24 20 -4 -5
-7 3 -7 18 0 27 2 28 54 28 29 0 53 -4 53 -8z m467 -29 c12 -15 13 -48 3 -48
-11 0 -31 26 -25 32 3 3 -1 11 -10 18 -8 7 -15 17 -15 22 0 11 32 -6 47 -24z"/>
<path d="M1725 2790 c3 -5 8 -10 11 -10 2 0 4 5 4 10 0 6 -5 10 -11 10 -5 0
-7 -4 -4 -10z"/>
<path d="M1765 2779 c-4 -6 -5 -12 -2 -15 2 -3 7 2 10 11 7 17 1 20 -8 4z"/>
<path d="M1802 2750 c0 -14 2 -19 5 -12 2 6 2 18 0 25 -3 6 -5 1 -5 -13z"/>
<path d="M1847 2753 c-11 -10 -8 -43 3 -43 5 0 9 11 8 25 -3 28 -2 27 -11 18z"/>
<path d="M1882 2710 c0 -19 2 -27 5 -17 2 9 2 25 0 35 -3 9 -5 1 -5 -18z"/>
<path d="M1902 2705 c0 -16 2 -22 5 -12 2 9 2 23 0 30 -3 6 -5 -1 -5 -18z"/>
<path d="M1929 2678 c-3 -12 1 -39 8 -58 l12 -35 0 45 c1 52 -14 86 -20 48z"/>
<path d="M1989 2648 c-6 -19 -5 -68 2 -68 5 0 9 16 9 35 0 19 -2 35 -5 35 -3
0 -5 -1 -6 -2z"/>
<path d="M2022 2600 c0 -14 2 -19 5 -12 2 6 2 18 0 25 -3 6 -5 1 -5 -13z"/>
<path d="M2060 2610 c-1 -8 -3 -55 -5 -105 -2 -49 -8 -105 -14 -122 -5 -18 -8
-33 -6 -33 3 0 0 -12 -5 -26 -6 -14 -12 -40 -15 -57 -2 -18 -8 -57 -14 -87 -5
-30 -7 -57 -5 -59 5 -6 11 15 24 89 6 36 16 90 23 120 9 46 12 51 18 30 4 -15
6 -1 4 33 -1 31 2 57 6 57 3 0 9 11 11 25 3 14 1 25 -4 25 -5 0 -7 8 -4 18 3
9 2 37 -3 62 -5 25 -10 38 -11 30z"/>
<path d="M2082 2580 c0 -14 2 -19 5 -12 2 6 2 18 0 25 -3 6 -5 1 -5 -13z"/>
<path d="M920 2572 c0 -7 1 -13 2 -14 1 -2 -4 -13 -10 -25 -8 -15 -9 -24 -2
-28 6 -4 10 -3 9 2 -1 4 1 21 6 36 4 15 5 31 1 34 -3 4 -6 1 -6 -5z"/>
<path d="M1980 2555 c-3 -34 1 -90 8 -97 4 -4 6 14 4 40 -4 59 -9 84 -12 57z"/>
<path d="M2012 2550 c0 -14 2 -19 5 -12 2 6 2 18 0 25 -3 6 -5 1 -5 -13z"/>
<path d="M2095 2549 c-4 -6 -5 -12 -2 -15 2 -3 7 2 10 11 7 17 1 20 -8 4z"/>
<path d="M2120 2548 c-1 -7 -7 -48 -15 -91 -7 -44 -11 -85 -8 -92 2 -8 1 -20
-3 -27 -12 -19 -14 -40 -5 -57 9 -15 16 23 26 143 3 32 7 62 10 65 10 17 13
61 4 66 -5 4 -9 0 -9 -7z"/>
<path d="M856 2529 c3 -5 1 -9 -4 -9 -5 0 -9 -6 -9 -12 0 -7 -4 -21 -8 -30 -4
-11 -3 -18 4 -18 7 0 16 -10 21 -22 6 -17 9 -19 9 -6 1 10 -5 23 -12 30 -16
14 -1 56 23 61 10 2 7 5 -8 9 -12 3 -20 2 -16 -3z"/>
<path d="M1952 2520 c0 -14 2 -19 5 -12 2 6 2 18 0 25 -3 6 -5 1 -5 -13z"/>
<path d="M2005 2495 c3 -35 15 -44 15 -12 0 14 -4 28 -9 31 -5 4 -8 -5 -6 -19z"/>
<path d="M895 2475 c0 -32 13 -42 13 -10 0 14 -4 27 -7 30 -4 2 -7 -7 -6 -20z"/>
<path d="M1956 2475 c-3 -9 -5 -31 -5 -48 1 -27 3 -24 9 13 8 48 6 61 -4 35z"/>
<path d="M2136 2473 c-6 -14 -5 -15 5 -6 7 7 10 15 7 18 -3 3 -9 -2 -12 -12z"/>
<path d="M811 2453 c-1 -7 5 -16 13 -20 7 -4 16 -15 19 -23 4 -10 6 -7 6 8 1
13 -5 22 -13 22 -8 0 -17 6 -19 13 -4 9 -6 9 -6 0z"/>
<path d="M787 2428 c-4 -12 -4 -24 -2 -27 3 -2 5 1 5 8 0 7 4 10 9 7 5 -4 7 3
4 14 -7 25 -9 25 -16 -2z"/>
<path d="M1969 2372 c-2 -46 -1 -86 3 -88 9 -6 15 95 7 136 -4 26 -7 13 -10
-48z"/>
<path d="M880 2433 c0 -4 5 -15 10 -23 8 -13 10 -13 10 2 0 9 -4 20 -10 23 -5
3 -10 3 -10 -2z"/>
<path d="M2000 2403 c0 -24 3 -33 9 -25 7 12 4 62 -5 62 -2 0 -4 -17 -4 -37z"/>
<path d="M820 2314 c0 -48 2 -85 5 -83 9 10 13 159 4 164 -5 4 -9 -30 -9 -81z"/>
<path d="M877 2362 c2 -32 1 -33 -6 -12 -7 20 -9 21 -9 5 0 -11 3 -31 7 -45 7
-22 9 -19 16 23 4 28 4 52 -2 58 -5 5 -8 -6 -6 -29z"/>
<path d="M752 2360 c0 -19 2 -27 5 -17 2 9 2 25 0 35 -3 9 -5 1 -5 -18z"/>
<path d="M796 2382 c-2 -4 -1 -14 5 -22 7 -12 9 -10 9 8 0 23 -5 28 -14 14z"/>
<path d="M2003 2325 c0 -22 2 -30 4 -17 2 12 2 30 0 40 -3 9 -5 -1 -4 -23z"/>
<path d="M719 2338 c-1 -7 -1 -40 -1 -73 0 -58 0 -59 -7 -15 l-6 45 -8 -70
c-4 -38 -9 -88 -12 -110 -6 -46 -1 -39 16 25 12 45 12 45 20 15 4 -18 7 14 8
83 0 61 -1 112 -4 112 -3 0 -6 -6 -6 -12z"/>
<path d="M789 2285 c-5 -60 -4 -73 7 -63 3 3 4 32 2 64 l-3 59 -6 -60z"/>
<path d="M2052 2305 c0 -16 2 -22 5 -12 2 9 2 23 0 30 -3 6 -5 -1 -5 -18z"/>
<path d="M752 2304 c-14 -15 -15 -134 -1 -134 5 0 19 139 15 146 -1 1 -7 -4
-14 -12z"/>
<path d="M860 2265 c0 -8 5 -15 10 -15 6 0 10 7 10 15 0 8 -4 15 -10 15 -5 0
-10 -7 -10 -15z"/>
<path d="M1992 2255 c0 -16 2 -22 5 -12 2 9 2 23 0 30 -3 6 -5 -1 -5 -18z"/>
<path d="M2071 2270 c1 -8 5 -26 9 -40 l8 -25 1 25 c0 14 -4 32 -9 40 -9 13
-10 13 -9 0z"/>
<path d="M1962 2245 c0 -16 2 -22 5 -12 2 9 2 23 0 30 -3 6 -5 -1 -5 -18z"/>
<path d="M2040 2254 c0 -8 5 -12 10 -9 6 4 8 11 5 16 -9 14 -15 11 -15 -7z"/>
<path d="M682 2215 c0 -16 2 -22 5 -12 2 9 2 23 0 30 -3 6 -5 -1 -5 -18z"/>
<path d="M2042 2210 c0 -14 2 -19 5 -12 2 6 2 18 0 25 -3 6 -5 1 -5 -13z"/>
<path d="M1952 2180 c0 -19 2 -27 5 -17 2 9 2 25 0 35 -3 9 -5 1 -5 -18z"/>
<path d="M640 2166 c0 -31 6 -34 13 -6 3 11 1 23 -4 26 -5 3 -9 -6 -9 -20z"/>
<path d="M2028 2155 c-6 -30 -3 -43 8 -33 3 4 4 19 2 35 l-3 28 -7 -30z"/>
<path d="M2050 2136 c-15 -42 -11 -55 6 -17 8 19 12 36 9 39 -2 3 -9 -7 -15
-22z"/>
<path d="M605 2115 c-3 -8 -7 -21 -9 -27 -2 -7 0 -33 4 -58 6 -43 7 -42 11 28
4 72 3 85 -6 57z"/>
<path d="M626 2098 c-5 -21 -5 -55 0 -75 l8 -38 4 38 c2 20 2 54 0 75 l-4 37
-8 -37z"/>
<path d="M653 2060 c0 -30 2 -43 4 -27 2 15 2 39 0 55 -2 15 -4 2 -4 -28z"/>
<path d="M581 2014 c0 -11 3 -14 6 -6 3 7 2 16 -1 19 -3 4 -6 -2 -5 -13z"/>
<path d="M1320 2758 c0 -21 23 -24 39 -5 8 10 7 14 -4 14 -8 0 -15 -5 -15 -11
0 -6 -5 -4 -10 4 -8 13 -10 12 -10 -2z"/>
<path d="M1365 2730 c-16 -7 -17 -9 -3 -9 9 -1 20 4 23 9 7 11 7 11 -20 0z"/>
<path d="M1098 2704 c-16 -8 -28 -21 -28 -29 0 -19 -17 -28 -26 -14 -4 8 -3 9
4 5 7 -4 12 -5 12 -2 0 3 -10 11 -22 17 -13 6 -20 8 -16 4 4 -5 3 -14 -4 -22
-9 -11 -7 -12 6 -7 14 5 17 2 15 -12 -4 -20 7 -44 19 -44 4 0 9 10 9 22 3 32
24 68 36 61 6 -4 7 -1 2 7 -6 10 -4 12 9 7 10 -4 20 -7 22 -7 2 0 4 -15 4 -34
0 -28 -4 -35 -22 -39 -20 -4 -19 -4 5 -6 19 -1 27 4 28 17 1 9 2 27 3 39 0 12
10 29 21 37 17 13 17 15 3 16 -9 0 -18 -6 -21 -12 -3 -10 -7 -10 -18 -1 -11 9
-20 8 -41 -3z"/>
<path d="M1315 2710 c-7 -11 22 -26 32 -16 4 3 -2 6 -13 6 -16 0 -17 2 -4 10
9 6 10 10 3 10 -6 0 -15 -5 -18 -10z"/>
<path d="M1090 2650 c-6 -12 -9 -26 -6 -33 2 -7 5 -5 5 5 1 11 7 15 22 11 16
-5 20 -2 18 12 -6 27 -26 29 -39 5z m30 0 c0 -5 -5 -10 -11 -10 -5 0 -7 5 -4
10 3 6 8 10 11 10 2 0 4 -4 4 -10z"/>
<path d="M1551 2641 c-9 -6 -10 -11 -2 -15 6 -4 11 -12 11 -18 0 -6 -7 -5 -17
3 -10 8 -14 9 -10 2 5 -8 -6 -11 -42 -10 -74 3 -52 -9 31 -17 40 -4 84 -9 98
-12 94 -18 97 -18 97 13 l0 28 -74 1 c-76 1 -98 8 -73 24 8 6 11 10 5 10 -5 0
-16 -4 -24 -9z m49 -41 c0 -5 -2 -10 -4 -10 -3 0 -8 5 -11 10 -3 6 -1 10 4 10
6 0 11 -4 11 -10z m38 -11 c-20 -13 -28 -11 -22 5 3 8 12 12 21 9 12 -5 12 -7
1 -14z m62 11 c0 -5 -7 -10 -16 -10 -8 0 -12 5 -9 10 3 6 10 10 16 10 5 0 9
-4 9 -10z"/>
<path d="M1744 2622 c3 -6 2 -13 -4 -17 -16 -10 -12 -35 8 -42 9 -4 23 -13 30
-20 16 -16 29 -17 37 -3 3 6 1 10 -5 10 -6 0 -8 5 -4 12 4 7 3 8 -5 4 -13 -9
-41 16 -41 38 0 8 -5 18 -12 22 -6 4 -8 3 -4 -4z"/>
<path d="M1360 2610 c-13 -9 -13 -10 0 -9 8 0 24 4 35 9 20 9 20 9 0 9 -11 0
-27 -4 -35 -9z"/>
<path d="M1792 2613 c-19 -4 -21 -7 -11 -19 6 -7 15 -11 20 -8 5 3 18 0 29 -6
24 -13 41 -5 34 15 -5 11 -11 12 -25 4 -18 -9 -23 -5 -20 14 0 4 0 6 -1 6 -2
-1 -13 -4 -26 -6z"/>
<path d="M1305 2540 c3 -5 8 -10 11 -10 2 0 4 5 4 10 0 6 -5 10 -11 10 -5 0
-7 -4 -4 -10z"/>
<path d="M1364 2518 c-6 -29 -8 -30 -15 -13 -7 19 -8 19 -8 -2 -1 -13 4 -23 9
-23 6 0 10 -9 10 -20 0 -14 -7 -20 -22 -21 -18 -1 -19 -2 -5 -6 9 -2 15 -9 12
-14 -4 -5 -1 -9 4 -9 6 0 11 8 11 18 0 11 3 13 8 5 4 -6 7 18 8 53 0 35 0 64
-2 64 -1 0 -6 -15 -10 -32z"/>
<path d="M1258 2528 c-2 -25 -4 -33 -12 -55 -4 -13 -9 -35 -12 -50 -3 -21 -2
-24 5 -12 10 16 22 62 23 89 1 8 5 18 11 21 5 4 5 9 -2 13 -6 4 -12 1 -13 -6z"/>
<path d="M1423 2525 c-3 -9 -3 -18 -1 -21 3 -3 8 4 11 16 6 23 -1 27 -10 5z"/>
<path d="M1471 2524 c0 -11 3 -14 6 -6 3 7 2 16 -1 19 -3 4 -6 -2 -5 -13z"/>
<path d="M1129 2489 c-7 -24 -12 -48 -10 -53 1 -4 -3 -13 -8 -20 -6 -8 -6 -17
1 -26 8 -12 9 -12 4 3 -3 10 0 17 8 17 14 0 27 22 25 43 0 7 -4 3 -9 -8 -13
-31 -12 5 1 44 6 18 9 34 6 38 -3 3 -11 -15 -18 -38z"/>
<path d="M1284 2503 c-3 -16 -10 -40 -14 -55 -6 -17 -5 -28 1 -28 5 0 9 7 9
15 0 8 5 15 10 15 6 0 8 -12 5 -27 -5 -26 -5 -27 5 -5 15 34 20 72 10 72 -5 0
-11 -8 -14 -17 -2 -10 -2 -1 1 20 6 43 -4 51 -13 10z"/>
<path d="M1156 2504 c-8 -22 -4 -25 11 -9 7 8 9 16 4 19 -5 3 -12 -1 -15 -10z"/>
<path d="M1512 2508 c-14 -14 -16 -28 -3 -28 5 0 11 9 14 20 6 23 5 24 -11 8z"/>
<path d="M1472 2475 c0 -16 2 -22 5 -12 2 9 2 23 0 30 -3 6 -5 -1 -5 -18z"/>
<path d="M1533 2447 c0 -29 1 -47 3 -42 19 64 21 84 9 89 -9 3 -13 -9 -12 -47z"/>
<path d="M1583 2473 c2 -18 0 -33 -5 -33 -4 0 -8 -13 -8 -29 0 -16 -6 -32 -12
-34 -8 -3 -6 -6 5 -6 9 -1 17 2 18 7 0 4 3 17 5 30 2 12 5 30 7 40 2 9 7 24
12 31 5 9 4 12 -3 7 -5 -3 -13 0 -16 6 -3 7 -5 -2 -3 -19z"/>
<path d="M1407 2453 c-9 -51 -2 -53 11 -3 5 22 6 40 2 40 -4 0 -10 -17 -13
-37z"/>
<path d="M1206 2457 c3 -10 9 -15 12 -12 3 3 0 11 -7 18 -10 9 -11 8 -5 -6z"/>
<path d="M1502 2440 c0 -19 2 -27 5 -17 2 9 2 25 0 35 -3 9 -5 1 -5 -18z"/>
<path d="M1616 2429 c-8 -40 -8 -54 1 -46 7 8 16 77 10 77 -3 0 -7 -14 -11
-31z"/>
<path d="M1462 2420 c0 -14 2 -19 5 -12 2 6 2 18 0 25 -3 6 -5 1 -5 -13z"/>
<path d="M1330 2384 c58 -7 210 -8 210 -1 0 4 -53 6 -117 6 -65 -1 -107 -3
-93 -5z"/>
<path d="M1014 2465 c-9 -25 -14 -48 -10 -52 3 -3 6 -1 6 6 0 7 4 9 10 6 6 -3
7 1 4 9 -3 9 -2 16 2 16 5 0 10 14 11 30 3 41 -2 38 -23 -15z"/>
<path d="M2186 2358 c-9 -34 -7 -68 3 -68 5 0 8 11 6 25 -1 14 1 25 4 25 4 0
7 9 7 20 0 27 -12 25 -20 -2z"/>
<path d="M2236 2295 c-5 -24 -11 -33 -21 -28 -10 3 -15 -2 -15 -17 0 -11 -4
-19 -10 -15 -5 3 -7 12 -4 19 3 8 1 17 -5 21 -6 3 -11 0 -12 -7 0 -7 -2 -20
-4 -28 -25 -100 -38 -213 -25 -205 6 4 10 -10 10 -36 0 -59 8 -44 14 24 3 31
8 62 12 68 3 6 1 22 -7 35 -10 20 -10 28 0 48 8 13 10 29 7 35 -4 6 -2 11 3
11 6 0 11 -10 12 -22 1 -13 5 -4 11 19 6 27 13 40 21 37 8 -3 17 11 23 36 6
22 8 40 4 40 -4 0 -11 -16 -14 -35z m-79 -202 c-3 -10 -5 -4 -5 12 0 17 2 24
5 18 2 -7 2 -21 0 -30z"/>
<path d="M2272 2263 c-23 -59 -73 -246 -70 -261 2 -10 14 24 27 73 13 50 32
117 42 149 19 61 20 88 1 39z"/>
<path d="M2300 2260 c-1 -8 -4 -24 -7 -35 -2 -11 -5 -28 -6 -37 -1 -9 -5 -14
-10 -11 -5 3 -6 -4 -3 -15 4 -11 2 -23 -4 -27 -6 -3 -8 -10 -5 -15 3 -5 1 -11
-3 -14 -5 -3 -7 -17 -4 -31 2 -14 0 -25 -6 -25 -6 0 -11 -8 -11 -17 -1 -32 -8
-90 -13 -99 -2 -5 -1 -27 2 -49 l6 -40 8 50 c4 28 14 86 22 130 9 44 17 90 19
101 2 12 7 30 13 40 5 11 7 25 4 33 -2 7 0 16 5 20 5 3 6 17 2 31 -4 14 -8 18
-9 10z"/>
<path d="M2202 2170 c-9 -39 -10 -41 -12 -15 -1 26 -3 27 -10 10 -4 -11 -4
-24 1 -29 5 -6 6 -53 3 -106 -4 -60 -3 -99 3 -103 6 -4 10 26 9 81 0 48 5 108
13 134 7 25 11 52 8 60 -2 7 -9 -7 -15 -32z"/>
<path d="M2290 2062 c-12 -59 -23 -126 -24 -149 -1 -22 -4 -39 -8 -36 -5 2 -8
-3 -8 -12 0 -28 23 -11 36 27 9 28 10 38 1 41 -9 3 -5 35 11 116 13 62 22 115
20 117 -3 2 -15 -44 -28 -104z m-13 -164 c-3 -7 -5 -2 -5 12 0 14 2 19 5 13 2
-7 2 -19 0 -25z"/>
<path d="M2336 2108 c4 -19 2 -28 -6 -28 -7 0 -10 -7 -6 -15 3 -8 0 -15 -6
-15 -6 0 -5 -6 3 -17 12 -14 12 -15 0 -9 -10 7 -12 3 -6 -14 4 -12 3 -25 -2
-29 -4 -3 -6 -22 -2 -41 5 -27 7 -29 8 -10 0 14 8 58 16 98 11 52 12 78 5 90
-8 13 -9 11 -4 -10z"/>
<path d="M2120 2006 c0 -8 5 -18 10 -21 6 -3 10 3 10 14 0 12 -4 21 -10 21 -5
0 -10 -6 -10 -14z"/>
<path d="M2302 1875 c0 -16 2 -22 5 -12 2 9 2 23 0 30 -3 6 -5 -1 -5 -18z"/>
<path d="M2350 1871 c-13 -25 -13 -28 3 -34 8 -3 12 5 12 24 0 34 -1 35 -15
10z"/>
<path d="M2350 1684 c0 -41 16 -38 22 6 3 20 0 30 -9 30 -8 0 -13 -13 -13 -36z"/>
<path d="M1691 2464 c0 -11 3 -14 6 -6 3 7 2 16 -1 19 -3 4 -6 -2 -5 -13z"/>
<path d="M1718 2454 c5 -3 7 -16 4 -29 -2 -14 -7 -23 -11 -21 -3 2 -6 -16 -6
-41 0 -25 1 -39 3 -33 3 9 6 9 12 0 5 -8 13 3 24 31 l16 44 -4 -55 c-2 -30 -1
-47 1 -37 2 9 8 17 11 17 4 0 8 28 9 62 3 70 -7 68 -38 -8 l-20 -49 5 47 c3
25 7 52 8 58 2 7 -3 14 -10 16 -7 1 -9 0 -4 -2z"/>
<path d="M1812 2394 c-17 -68 -23 -109 -14 -99 11 11 34 126 28 133 -3 2 -9
-13 -14 -34z"/>
<path d="M1880 2415 c7 -8 17 -12 22 -9 6 4 5 10 -3 15 -22 14 -33 10 -19 -6z"/>
<path d="M1680 2384 c0 -8 5 -12 10 -9 6 4 8 11 5 16 -9 14 -15 11 -15 -7z"/>
<path d="M1670 2350 c0 -5 5 -10 11 -10 5 0 7 5 4 10 -3 6 -8 10 -11 10 -2 0
-4 -4 -4 -10z"/>
<path d="M1019 2284 c-1 -2 -3 -8 -4 -14 -1 -5 -4 -12 -5 -15 -1 -3 -3 -8 -4
-12 -1 -5 -14 -32 -29 -61 -27 -53 -28 -72 -4 -72 7 0 6 4 -3 10 -13 9 -7 14
13 11 12 -2 8 17 -5 22 -7 3 -4 6 6 6 11 1 16 4 13 8 -9 8 13 34 24 28 4 -3 6
6 3 21 -3 18 -1 23 7 18 8 -4 9 -3 5 5 -4 7 -5 19 -2 28 5 13 9 13 24 2 14
-11 15 -11 5 1 -12 13 -42 23 -44 14z m1 -68 c0 -3 -4 -8 -10 -11 -5 -3 -10
-1 -10 4 0 6 5 11 10 11 6 0 10 -2 10 -4z"/>
<path d="M1585 2281 c3 -6 37 -31 76 -57 73 -48 171 -134 154 -134 -6 0 -3 -5
5 -10 8 -5 20 -24 27 -42 6 -18 12 -26 12 -17 1 22 -26 86 -40 94 -5 4 -8 14
-5 22 4 8 2 11 -5 7 -7 -4 -9 0 -5 13 4 13 -2 29 -19 49 l-25 29 11 -32 c6
-18 15 -30 20 -27 11 7 11 -7 0 -24 -7 -11 -9 -11 -14 0 -4 13 -181 138 -193
138 -3 0 -3 -4 1 -9z"/>
<path d="M1095 2268 c-29 -90 -35 -111 -31 -115 2 -3 9 10 15 29 5 18 14 48
20 66 5 17 8 32 5 32 -3 0 -6 -6 -9 -12z"/>
<path d="M979 2268 c0 -2 -2 -10 -4 -18 -2 -8 -15 -44 -30 -79 -14 -35 -24
-66 -21 -69 3 -2 8 4 12 14 3 10 15 42 26 71 11 29 19 55 18 59 -1 4 4 11 12
15 10 7 10 9 1 9 -7 0 -13 -1 -14 -2z"/>
<path d="M1045 2198 c-12 -31 -12 -49 0 -36 8 8 24 68 19 68 -3 0 -11 -15 -19
-32z"/>
<path d="M1821 2186 c-1 -13 41 -127 46 -123 2 2 -1 16 -7 31 -14 39 -12 57 3
21 15 -35 21 -165 7 -165 -5 0 -11 8 -13 18 -2 9 -3 7 -2 -5 1 -13 -1 -23 -5
-23 -5 0 -11 27 -15 61 -4 33 -9 58 -11 56 -3 -3 -2 -33 2 -69 l6 -64 33 10
c18 6 31 15 30 21 -2 5 -6 30 -9 55 l-5 45 14 -35 c20 -53 17 -13 -4 50 -30
87 -50 128 -51 105 -1 -20 -1 -20 -10 0 -5 11 -9 16 -9 11z"/>
<path d="M1011 2164 c0 -11 3 -14 6 -6 3 7 2 16 -1 19 -3 4 -6 -2 -5 -13z"/>
<path d="M1107 2160 c3 -11 7 -20 9 -20 2 0 4 9 4 20 0 11 -4 20 -9 20 -5 0
-7 -9 -4 -20z"/>
<path d="M800 2140 c0 -9 -5 -21 -12 -28 -13 -13 -17 -26 -24 -82 -3 -28 -2
-31 7 -17 5 9 7 22 3 29 -4 7 -3 8 4 4 7 -4 21 13 35 44 13 28 20 53 16 56 -5
3 -9 -1 -9 -8 0 -9 -3 -9 -10 2 -9 13 -10 13 -10 0z m10 -24 c0 -2 -8 -10 -17
-17 -16 -13 -17 -12 -4 4 13 16 21 21 21 13z"/>
<path d="M1042 2140 c13 -8 15 -16 7 -43 -12 -41 -12 -107 0 -107 13 0 18 143
6 152 -5 4 -14 8 -20 8 -5 -1 -2 -5 7 -10z"/>
<path d="M1080 2141 c0 -6 4 -11 10 -11 5 0 11 -33 13 -72 l3 -73 2 71 c1 53
-2 75 -13 84 -10 9 -15 9 -15 1z"/>
<path d="M996 2125 c-9 -26 -7 -32 5 -12 6 10 9 21 6 23 -2 3 -7 -2 -11 -11z"/>
<path d="M1017 2116 c-6 -15 0 -67 9 -75 3 -3 3 11 1 32 -2 20 0 37 4 37 5 0
9 5 9 10 0 15 -17 12 -23 -4z"/>
<path d="M832 2095 c-9 -19 -9 -25 1 -25 8 0 7 -4 -3 -10 -8 -5 -11 -10 -6
-10 5 0 3 -7 -4 -15 -7 -8 -16 -12 -21 -9 -5 3 -6 -2 -2 -11 4 -12 8 -13 13
-5 4 7 10 8 12 4 3 -5 3 -3 2 4 -2 7 2 15 9 17 9 4 20 85 12 85 -1 0 -7 -11
-13 -25z"/>
<path d="M1774 2067 c2 -17 4 -54 5 -82 2 -27 5 -43 8 -35 3 8 10 18 15 21 14
9 -2 80 -16 72 -6 -4 -5 1 2 10 12 14 12 19 -1 32 -14 13 -15 11 -13 -18z m23
-79 c-3 -8 -6 -5 -6 6 -1 11 2 17 5 13 3 -3 4 -12 1 -19z"/>
<path d="M1914 2077 c7 -27 176 -206 176 -186 0 12 2 11 11 -1 9 -13 10 -13 6
0 -2 8 -9 14 -14 13 -5 -1 -36 25 -69 58 -32 32 -53 59 -47 59 6 0 34 -25 62
-56 28 -30 51 -50 51 -42 1 7 15 -3 32 -22 16 -19 25 -26 20 -14 -6 12 -30 41
-54 66 -24 24 -32 32 -19 16 50 -58 13 -33 -72 47 -61 57 -87 77 -83 62z m41
-37 c10 -11 16 -20 13 -20 -3 0 -13 9 -23 20 -10 11 -16 20 -13 20 3 0 13 -9
23 -20z"/>
<path d="M1001 2050 c0 -8 4 -24 9 -35 5 -13 9 -14 9 -5 0 8 -4 24 -9 35 -5
13 -9 14 -9 5z"/>
<path d="M1082 2010 c0 -19 2 -27 5 -17 2 9 2 25 0 35 -3 9 -5 1 -5 -18z"/>
<path d="M1920 2020 c0 -5 5 -10 11 -10 5 0 7 5 4 10 -3 6 -8 10 -11 10 -2 0
-4 -4 -4 -10z"/>
<path d="M980 2010 c0 -5 5 -10 11 -10 5 0 7 5 4 10 -3 6 -8 10 -11 10 -2 0
-4 -4 -4 -10z"/>
<path d="M1130 2006 c0 -3 21 -17 48 -32 26 -15 71 -42 100 -60 28 -19 52 -30
52 -25 0 11 -91 91 -104 91 -6 0 -1 -7 10 -15 33 -25 4 -16 -52 16 -30 17 -54
28 -54 25z m160 -82 c0 -2 -9 0 -20 6 -11 6 -20 13 -20 16 0 2 9 0 20 -6 11
-6 20 -13 20 -16z"/>
<path d="M1934 1969 c3 -17 6 -35 6 -40 0 -21 16 -6 18 17 1 16 -2 23 -9 18
-8 -4 -9 1 -4 15 4 13 2 21 -6 21 -8 0 -9 -10 -5 -31z"/>
<path d="M1140 1971 c14 -12 33 -29 44 -38 18 -17 18 -17 8 2 -6 11 -25 28
-44 38 l-33 18 25 -20z"/>
<path d="M1911 1964 c0 -11 3 -14 6 -6 3 7 2 16 -1 19 -3 4 -6 -2 -5 -13z"/>
<path d="M1971 1940 c0 -8 4 -22 9 -30 12 -18 12 -2 0 25 -6 13 -9 15 -9 5z"/>
<path d="M2002 1930 c0 -14 2 -19 5 -12 2 6 2 18 0 25 -3 6 -5 1 -5 -13z"/>
<path d="M1320 1932 c0 -6 11 -9 25 -8 14 2 22 -1 18 -7 -4 -6 4 -8 20 -4 30
8 87 -2 87 -15 0 -5 -5 -6 -12 -2 -7 4 -8 3 -4 -5 6 -9 11 -9 23 1 14 11 12
14 -15 25 -44 18 -142 28 -142 15z"/>
<path d="M1921 1924 c0 -11 3 -14 6 -6 3 7 2 16 -1 19 -3 4 -6 -2 -5 -13z"/>
<path d="M1378 1893 c12 -2 30 -2 40 0 9 3 -1 5 -23 4 -22 0 -30 -2 -17 -4z"/>
<path d="M1350 1870 c-33 -7 -31 -7 18 -9 29 0 52 3 52 9 0 11 -17 11 -70 0z"/>
<path d="M1905 1789 c-18 -8 -18 -8 5 -6 19 1 28 -6 42 -33 22 -44 22 -43 -1
-57 -16 -10 -30 -9 -70 3 -27 8 -83 18 -123 22 -63 6 -73 10 -70 26 3 15 1 16
-11 5 -13 -12 -13 -15 0 -23 13 -7 9 -11 -17 -22 -39 -17 -50 -17 -50 -3 0 5
6 7 13 3 6 -4 8 -3 4 1 -14 16 -36 14 -30 -3 4 -10 2 -13 -5 -8 -8 5 -10 2 -6
-8 10 -26 -4 -18 -19 10 -11 22 -15 24 -20 10 -4 -9 -1 -16 6 -16 9 0 9 -2 0
-8 -8 -5 -3 -11 13 -19 17 -8 24 -8 24 0 0 6 12 -3 28 -20 l27 -32 165 -7
c110 -4 174 -11 193 -21 20 -10 27 -10 25 -2 -4 17 -105 67 -150 75 -21 4 -38
9 -38 13 0 8 -156 5 -200 -4 -43 -9 -32 4 18 22 79 27 247 3 313 -46 38 -29
48 -27 15 4 -31 28 -34 40 -7 25 11 -5 31 -10 45 -10 14 0 29 -8 35 -17 5 -10
13 -15 16 -11 14 13 -42 57 -66 52 -22 -4 -22 -4 -4 5 20 9 20 10 -1 10 -24 1
-41 38 -18 38 8 0 14 -3 14 -7 0 -3 15 -14 33 -24 l32 -18 -35 31 c-19 17 -40
31 -47 31 -6 0 -15 5 -19 12 -5 8 -2 9 9 5 28 -11 19 1 -13 18 -16 8 -30 15
-32 14 -2 0 -12 -5 -23 -10z m-165 -144 c0 -20 -5 -25 -24 -25 -13 0 -36 6
-51 14 l-28 15 34 9 c57 17 69 15 69 -13z m87 -11 c-9 -9 -28 6 -21 18 4 6 10
6 17 -1 6 -6 8 -13 4 -17z m103 -5 c13 -7 13 -8 -1 -9 -9 0 -31 -3 -48 -6 -27
-6 -31 -4 -31 15 0 18 4 20 33 14 17 -3 39 -9 47 -14z"/>
<path d="M1723 1764 c-8 -8 -9 -15 -3 -19 6 -3 10 0 11 7 0 7 4 4 9 -7 6 -13
9 -15 9 -5 1 27 -13 39 -26 24z"/>
<path d="M1513 1655 c-6 -20 -7 -35 -2 -35 5 0 9 3 10 8 0 4 3 19 5 35 6 38
-1 34 -13 -8z"/>
<path d="M2261 1664 c0 -11 3 -14 6 -6 3 7 2 16 -1 19 -3 4 -6 -2 -5 -13z"/>
<path d="M2130 1655 c0 -5 5 -17 10 -25 5 -8 10 -10 10 -5 0 6 -5 17 -10 25
-5 8 -10 11 -10 5z"/>
<path d="M2118 1598 c-3 -18 0 -32 9 -40 13 -10 12 -15 -7 -30 -12 -10 -25
-16 -29 -13 -4 2 -8 -2 -8 -10 0 -11 4 -12 14 -4 7 6 13 8 13 5 0 -4 9 2 20
12 18 17 19 22 7 63 -13 41 -14 42 -19 17z"/>
<path d="M2153 1580 c6 -16 13 -28 15 -26 6 6 -10 56 -18 56 -5 0 -3 -13 3
-30z"/>
<path d="M1675 1580 c-3 -4 20 -20 50 -35 48 -22 68 -26 135 -24 100 2 106 14
8 14 -70 0 -158 20 -158 36 0 11 -29 19 -35 9z"/>
<path d="M1758 1576 c18 -10 86 -12 165 -6 84 8 50 15 -67 15 -76 0 -109 -3
-98 -9z"/>
<path d="M2073 1553 c-23 -16 -30 -33 -14 -33 5 0 19 8 32 18 28 23 12 35 -18
15z"/>
<path d="M1990 1505 c-19 -13 -40 -29 -47 -35 -7 -5 -16 -10 -20 -9 -19 3 -30
-2 -30 -15 0 -10 23 -3 79 25 43 22 76 44 73 49 -9 14 -15 12 -55 -15z"/>
<path d="M2059 1503 c-1 -5 -1 -12 0 -17 1 -5 -5 -6 -13 -3 -9 4 -18 1 -22 -5
-5 -7 -2 -8 6 -3 10 6 12 4 7 -9 -5 -12 -3 -15 6 -9 6 4 15 8 20 9 4 1 10 2
13 3 4 0 1 7 -5 14 -6 8 -8 17 -4 20 3 4 3 7 0 7 -4 0 -8 -3 -8 -7z"/>
<path d="M440 1836 c-15 -39 -12 -46 6 -13 9 16 13 31 10 34 -3 3 -10 -6 -16
-21z"/>
<path d="M1264 1565 c-15 -20 -25 -37 -23 -39 2 -2 16 14 31 35 35 49 28 51
-8 4z"/>
<path d="M1264 1522 c3 -6 2 -21 -3 -34 -7 -20 -6 -24 10 -25 10 -1 21 2 24 8
4 5 14 9 23 9 15 0 15 -2 2 -10 -12 -8 -8 -10 15 -11 17 -1 37 -1 47 0 9 1 19
-3 22 -8 4 -6 -15 -13 -46 -18 l-53 -7 40 -7 c22 -4 51 -8 65 -7 24 0 24 0 -2
7 l-28 6 25 12 c14 6 25 7 25 3 0 -5 7 -7 15 -6 17 2 21 20 5 22 -5 1 -14 2
-20 3 -5 0 -10 6 -10 12 0 5 5 7 12 3 7 -5 8 -3 3 6 -6 10 -11 9 -22 -5 -7
-11 -13 -14 -13 -7 0 6 -7 9 -17 5 -11 -5 -14 -3 -8 6 5 10 2 11 -13 7 -12 -4
-31 -2 -44 5 -16 9 -23 9 -26 0 -2 -6 -8 -11 -14 -11 -5 0 -7 9 -3 19 3 11 0
23 -6 27 -7 4 -9 3 -5 -4z"/>
<path d="M1380 1500 c8 -5 20 -10 25 -10 6 0 3 5 -5 10 -8 5 -19 10 -25 10 -5
0 -3 -5 5 -10z"/>
<path d="M1226 1455 c-3 -9 -2 -13 4 -10 6 3 10 -3 10 -14 0 -11 5 -23 10 -26
15 -9 12 27 -4 48 -12 16 -14 16 -20 2z"/>
<path d="M1298 1443 c12 -2 32 -2 45 0 12 2 2 4 -23 4 -25 0 -35 -2 -22 -4z"/>
<path d="M1511 1434 c0 -11 3 -14 6 -6 3 7 2 16 -1 19 -3 4 -6 -2 -5 -13z"/>
<path d="M1183 1415 c0 -8 4 -15 9 -15 4 0 8 4 8 9 0 6 -4 12 -8 15 -5 3 -9
-1 -9 -9z"/>
<path d="M1471 1414 c0 -11 3 -14 6 -6 3 7 2 16 -1 19 -3 4 -6 -2 -5 -13z"/>
<path d="M1221 1404 c0 -11 3 -14 6 -6 3 7 2 16 -1 19 -3 4 -6 -2 -5 -13z"/>
<path d="M1427 1392 c-19 -20 -23 -37 -7 -27 19 11 10 -10 -16 -40 -17 -19
-24 -23 -20 -11 5 15 2 17 -14 13 -11 -3 -18 -1 -14 4 3 5 1 9 -5 9 -5 0 -11
-5 -13 -11 -3 -9 -14 -9 -43 1 -43 14 -57 28 -50 48 7 20 -3 14 -16 -9 -6 -12
-7 -19 -1 -15 5 3 12 -4 15 -16 4 -12 9 -19 13 -15 4 4 17 1 28 -6 12 -7 36
-14 55 -15 21 -2 40 -10 48 -22 8 -11 20 -20 26 -20 7 0 4 7 -6 14 -10 8 -14
17 -9 20 15 9 43 -5 35 -18 -3 -6 -3 -8 2 -4 4 4 17 3 29 -3 20 -10 20 -9 2 5
-18 14 -18 16 3 42 11 15 21 34 20 43 0 9 -6 3 -14 -13 -12 -29 -62 -51 -52
-24 2 7 13 12 23 11 10 -1 13 0 7 3 -7 3 -13 10 -13 15 0 6 4 7 10 4 6 -4 7 1
3 11 -5 12 -3 15 6 9 10 -6 11 -3 2 14 -14 25 -14 25 -34 3z m15 -14 c-7 -7
-12 -8 -12 -2 0 6 3 14 7 17 3 4 9 5 12 2 2 -3 -1 -11 -7 -17z"/>
<path d="M2167 1393 c-4 -3 -7 -11 -7 -17 0 -6 5 -4 10 4 8 12 10 11 10 -7 0
-29 -17 -38 -25 -13 -4 11 -11 18 -16 15 -15 -10 -10 -94 7 -120 9 -13 12 -30
8 -36 -5 -8 -3 -9 6 -4 10 6 12 4 7 -9 -4 -9 -3 -15 2 -11 5 3 12 -1 14 -7 4
-9 6 -8 6 3 1 8 -4 20 -11 27 -8 8 -8 15 3 29 13 16 12 17 -3 5 -14 -11 -17
-10 -24 10 -12 38 -13 89 -2 82 5 -3 7 -16 4 -28 -6 -23 2 -40 21 -43 7 -2 10
4 7 12 -4 8 -11 12 -16 9 -6 -4 -7 2 -3 17 10 33 25 48 25 24 0 -10 3 -16 6
-13 7 8 -6 78 -15 78 -4 0 -11 -3 -14 -7z"/>
<path d="M1612 1321 c-11 -7 -11 -9 0 -14 9 -3 15 1 15 9 0 8 -1 14 -1 14 -1
0 -7 -4 -14 -9z"/>
<path d="M2201 1294 c0 -11 3 -14 6 -6 3 7 2 16 -1 19 -3 4 -6 -2 -5 -13z"/>
<path d="M1570 1293 c8 -3 22 -11 30 -17 13 -10 13 -9 1 7 -7 9 -21 17 -30 16
-13 0 -14 -1 -1 -6z"/>
<path d="M1520 1286 c0 -2 7 -6 15 -10 8 -3 15 -1 15 4 0 6 -7 10 -15 10 -8 0
-15 -2 -15 -4z"/>
<path d="M2079 1193 c-13 -15 -16 -21 -6 -14 15 12 18 10 28 -18 6 -17 14 -29
19 -26 4 2 5 -8 3 -23 -4 -22 -2 -24 7 -12 10 12 11 11 7 -9 -3 -13 -1 -35 5
-50 6 -14 10 -35 10 -46 -2 -18 0 -17 10 3 10 19 7 38 -16 108 -15 46 -30 83
-34 83 -19 -3 -23 2 -12 16 22 26 4 16 -21 -12z"/>
<path d="M2034 1158 c-4 -6 -3 -8 3 -5 13 8 33 -35 33 -71 0 -19 3 -23 9 -13
9 14 9 19 -3 63 -9 29 -31 44 -42 26z"/>
<path d="M2186 1153 c-6 -14 -5 -15 5 -6 7 7 10 15 7 18 -3 3 -9 -2 -12 -12z"/>
<path d="M2111 1075 c0 -5 8 -44 19 -85 12 -48 17 -59 13 -30 -5 44 -30 134
-32 115z"/>
<path d="M2052 1045 c0 -16 2 -22 5 -12 2 9 2 23 0 30 -3 6 -5 -1 -5 -18z"/>
<path d="M2082 1040 c-14 -40 -14 -40 -2 -40 6 0 10 10 11 23 0 21 1 21 9 2
11 -25 12 2 1 29 -7 18 -9 16 -19 -14z"/>
<path d="M2083 941 c0 -33 4 -55 14 -63 13 -10 14 -5 8 38 -11 71 -21 83 -22
25z"/>
<path d="M2170 981 c0 -5 5 -13 10 -16 6 -3 10 -2 10 4 0 5 -4 13 -10 16 -5 3
-10 2 -10 -4z"/>
<path d="M2112 965 c0 -11 3 -29 8 -40 11 -25 11 1 0 35 -6 20 -8 21 -8 5z"/>
<path d="M2041 934 c0 -11 3 -14 6 -6 3 7 2 16 -1 19 -3 4 -6 -2 -5 -13z"/>
<path d="M735 1781 c-10 -21 -12 -36 -6 -53 9 -21 10 -21 11 -3 2 26 6 46 15
68 12 28 -3 19 -20 -12z"/>
<path d="M784 1624 c-18 -14 -18 -14 6 -3 31 14 36 19 24 19 -6 0 -19 -7 -30
-16z"/>
<path d="M735 1550 c-17 -19 -20 -34 -5 -25 6 3 10 2 10 -4 0 -17 27 -1 37 22
9 19 8 23 -9 23 -10 0 -25 -8 -33 -16z m17 -12 c-7 -7 -12 -8 -12 -2 0 14 12
26 19 19 2 -3 -1 -11 -7 -17z"/>
<path d="M797 1549 c-27 -22 -18 -24 28 -5 18 8 36 12 39 10 3 -2 4 -1 1 3
-11 14 -47 9 -68 -8z"/>
<path d="M988 1823 c7 -3 16 -2 19 1 4 3 -2 6 -13 5 -11 0 -14 -3 -6 -6z"/>
<path d="M910 1799 c-13 -9 -13 -10 0 -6 8 2 29 -2 45 -10 l30 -14 -25 20
c-29 24 -30 24 -50 10z"/>
<path d="M970 1805 c0 -5 56 -35 66 -35 4 0 -5 9 -19 20 -23 19 -47 26 -47 15z"/>
<path d="M1056 1801 c-3 -5 2 -15 12 -22 15 -12 16 -12 5 2 -7 9 -10 19 -6 22
3 4 4 7 0 7 -3 0 -8 -4 -11 -9z"/>
<path d="M655 1070 c-10 -11 -21 -18 -25 -15 -4 2 -7 -2 -7 -10 0 -23 11 -18
35 15 26 34 24 40 -3 10z"/>
<path d="M1390 1069 c0 -37 4 -59 8 -51 8 12 5 102 -4 111 -2 2 -4 -25 -4 -60z"/>
<path d="M1412 1120 c0 -8 4 -26 8 -40 6 -20 8 -21 8 -5 0 11 -3 29 -8 40 -5
12 -8 14 -8 5z"/>
<path d="M1463 1085 c0 -22 2 -30 4 -17 2 12 2 30 0 40 -3 9 -5 -1 -4 -23z"/>
<path d="M1321 1094 c0 -11 3 -14 6 -6 3 7 2 16 -1 19 -3 4 -6 -2 -5 -13z"/>
<path d="M1341 1093 c-1 -12 4 -25 9 -28 6 -3 7 -17 4 -31 -4 -17 -2 -24 9
-24 11 0 13 10 11 41 -3 40 -13 67 -15 38 0 -8 -4 -6 -9 6 -8 19 -9 19 -9 -2z"/>
<path d="M1530 1088 c0 -9 5 -20 11 -23 17 -11 18 -2 3 19 -12 17 -14 17 -14
4z"/>
<path d="M1273 1043 c1 -23 6 -38 10 -34 5 5 4 24 -1 42 l-10 34 1 -42z"/>
<path d="M1422 930 c0 -19 2 -27 5 -17 2 9 2 25 0 35 -3 9 -5 1 -5 -18z"/>
<path d="M1512 930 c0 -19 2 -27 5 -17 2 9 2 25 0 35 -3 9 -5 1 -5 -18z"/>
<path d="M1142 930 c0 -14 2 -19 5 -12 2 6 2 18 0 25 -3 6 -5 1 -5 -13z"/>
<path d="M1161 934 c0 -11 3 -14 6 -6 3 7 2 16 -1 19 -3 4 -6 -2 -5 -13z"/>
<path d="M1282 935 c0 -11 3 -29 8 -40 11 -25 11 1 0 35 -6 20 -8 21 -8 5z"/>
<path d="M1200 930 c0 -5 5 -10 10 -10 6 0 10 5 10 10 0 6 -4 10 -10 10 -5 0
-10 -4 -10 -10z"/>
<path d="M1181 914 c0 -11 3 -14 6 -6 3 7 2 16 -1 19 -3 4 -6 -2 -5 -13z"/>
<path d="M1231 914 c0 -11 3 -14 6 -6 3 7 2 16 -1 19 -3 4 -6 -2 -5 -13z"/>
<path d="M1744 900 c0 -11 6 -20 11 -20 9 0 10 5 7 30 -3 19 -19 10 -18 -10z"/>
<path d="M983 888 c2 -7 12 -12 21 -12 9 1 16 -3 15 -10 -3 -24 1 -37 11 -31
6 3 10 0 10 -7 0 -8 4 -7 10 4 6 10 19 15 30 13 12 -2 18 0 15 6 -4 5 -10 7
-15 4 -4 -3 -10 1 -13 7 -3 9 -7 7 -12 -5 -7 -16 -10 -14 -26 12 -18 30 -55
44 -46 19z"/>
<path d="M1690 897 c0 -2 5 -18 11 -36 9 -25 14 -29 25 -20 8 6 14 17 14 23 0
6 -4 5 -9 -3 -7 -11 -10 -9 -13 9 -1 13 -9 25 -15 28 -7 2 -13 2 -13 -1z"/>
<path d="M1670 882 c0 -7 -4 -11 -10 -7 -6 3 -6 -5 0 -22 17 -54 20 -58 15
-18 -4 29 -3 36 4 25 13 -19 14 0 1 20 -7 11 -10 11 -10 2z"/>
<path d="M1636 840 c4 -19 10 -42 15 -50 11 -18 1 34 -13 65 -5 13 -6 9 -2
-15z"/>
<path d="M1601 845 c0 -11 7 -36 15 -55 l14 -35 -6 35 c-4 19 -10 44 -15 55
-8 20 -8 20 -8 0z"/>
<path d="M1100 821 c-16 -31 -12 -38 7 -12 l16 24 15 -29 15 -28 18 23 c11 13
19 28 19 35 0 6 -4 5 -9 -3 -6 -8 -14 -10 -22 -5 -26 16 -48 14 -59 -5z m60
-19 c0 -15 -2 -15 -10 -2 -13 20 -13 33 0 25 6 -3 10 -14 10 -23z"/>
<path d="M1581 824 c0 -11 3 -14 6 -6 3 7 2 16 -1 19 -3 4 -6 -2 -5 -13z"/>
<path d="M1060 821 c0 -6 4 -13 10 -16 6 -3 7 1 4 9 -7 18 -14 21 -14 7z"/>
<path d="M1196 814 c-3 -9 -4 -19 -1 -22 3 -3 5 1 5 9 0 11 2 11 10 -1 5 -8
10 -10 10 -5 0 6 -4 16 -9 23 -6 11 -10 10 -15 -4z"/>
<path d="M1240 796 c0 -8 5 -18 10 -21 6 -3 10 3 10 14 0 12 -4 21 -10 21 -5
0 -10 -6 -10 -14z"/>
<path d="M1550 779 c-14 -11 -41 -27 -61 -35 -20 -8 -36 -21 -36 -29 0 -8 4
-12 8 -9 4 2 10 -4 12 -13 3 -11 5 -8 6 10 1 32 27 37 34 7 4 -18 5 -18 5 2 0
40 4 44 12 13 7 -29 8 -29 10 10 l3 40 7 -35 7 -35 2 40 c2 22 5 33 8 25 2 -8
7 -22 9 -30 5 -13 6 -13 14 0 6 8 9 26 9 40 0 23 -1 23 -8 5 -7 -17 -9 -18
-12 -3 -4 16 -6 15 -29 -3z"/>
<path d="M1492 700 c0 -14 2 -19 5 -12 2 6 2 18 0 25 -3 6 -5 1 -5 -13z"/>
<path d="M1170 689 c0 -5 5 -7 10 -4 6 3 10 8 10 11 0 2 -4 4 -10 4 -5 0 -10
-5 -10 -11z"/>
<path d="M1208 683 c7 -3 16 -2 19 1 4 3 -2 6 -13 5 -11 0 -14 -3 -6 -6z"/>
<path d="M1966 814 c-10 -25 -7 -102 4 -109 6 -4 10 18 10 59 0 67 -3 78 -14
50z"/>
<path d="M1993 765 c0 -27 2 -38 4 -22 2 15 2 37 0 50 -2 12 -4 0 -4 -28z"/>
<path d="M1943 755 c0 -22 2 -30 4 -17 2 12 2 30 0 40 -3 9 -5 -1 -4 -23z"/>
<path d="M1902 700 c0 -19 2 -27 5 -17 2 9 2 25 0 35 -3 9 -5 1 -5 -18z"/>
<path d="M1923 690 c0 -25 2 -35 4 -22 2 12 2 32 0 45 -2 12 -4 2 -4 -23z"/>
<path d="M1892 635 c0 -16 2 -22 5 -12 2 9 2 23 0 30 -3 6 -5 -1 -5 -18z"/>
<path d="M1832 600 c0 -19 2 -27 5 -17 2 9 2 25 0 35 -3 9 -5 1 -5 -18z"/>
<path d="M1810 571 c0 -17 4 -32 8 -35 4 -2 6 11 4 30 -5 42 -12 45 -12 5z"/>
<path d="M1357 67 c9 -19 18 -27 21 -19 3 10 8 8 19 -5 8 -10 6 -3 -5 16 -11
19 -27 36 -36 37 -14 2 -14 -1 1 -29z m17 7 c3 -8 2 -12 -4 -9 -6 3 -10 10
-10 16 0 14 7 11 14 -7z"/>
<path d="M1083 1459 c-7 -7 -27 -13 -47 -15 -41 -3 -95 -36 -166 -99 -28 -25
-62 -52 -75 -61 -31 -20 -33 -39 -2 -24 13 7 7 -2 -15 -22 -40 -35 -70 -99
-51 -105 8 -3 8 -14 3 -34 -5 -17 -5 -29 1 -29 9 0 14 27 11 62 -1 9 5 19 13
22 17 6 14 -22 -7 -77 -8 -19 -8 -35 0 -50 5 -12 17 -44 26 -72 11 -32 14 -38
10 -15 -15 79 -12 174 6 218 11 23 24 42 29 42 6 0 2 -15 -8 -34 -13 -23 -19
-52 -19 -92 1 -33 -2 -66 -6 -76 -5 -11 -2 -18 12 -22 11 -4 24 -24 33 -49 7
-23 24 -68 36 -100 13 -32 20 -63 17 -69 -5 -7 -2 -8 5 -4 8 5 12 3 10 -5 -3
-26 1 -39 19 -57 9 -9 27 -33 39 -52 13 -19 23 -28 23 -20 0 9 -5 21 -10 26
-8 8 -6 15 6 25 16 12 17 12 11 -4 -4 -11 -3 -16 4 -12 6 4 8 -2 4 -18 -4 -14
-2 -28 3 -31 6 -4 8 3 5 16 -5 22 -5 22 9 5 13 -18 14 -17 14 2 0 11 -5 17
-10 14 -5 -4 -7 1 -3 11 4 9 3 15 -2 12 -4 -3 -13 6 -20 20 -6 15 -16 22 -22
18 -7 -4 -10 -1 -7 7 5 14 -17 69 -28 69 -2 0 2 -12 9 -27 15 -29 12 -57 -4
-47 -8 5 -39 69 -39 81 0 2 5 1 12 -3 8 -5 9 -2 4 12 -20 48 -26 85 -18 101
11 21 5 43 -10 43 -7 0 -7 -4 0 -13 7 -8 7 -18 2 -27 -7 -10 -10 -11 -10 -2 0
6 -7 12 -15 12 -16 0 -38 34 -28 44 4 3 -4 18 -18 33 -13 14 -19 23 -13 20 8
-5 10 8 8 43 -2 27 1 52 6 55 6 4 7 13 1 24 -18 32 16 79 90 123 38 22 69 42
69 43 0 2 -8 6 -17 9 -10 4 -14 4 -10 0 10 -10 -81 -66 -94 -59 -5 4 -7 11 -3
16 3 5 10 6 16 3 7 -4 8 -2 4 4 -4 7 -3 12 3 12 32 0 130 90 130 120 0 13 -1
13 -12 0 -11 -14 -59 -40 -74 -40 -3 0 0 7 7 15 7 8 16 12 21 9 5 -3 9 -1 9 3
0 13 89 55 100 48 12 -7 50 12 50 25 0 13 -13 13 -27 -1z m-168 -120 c-4 -5
-12 -9 -18 -8 -9 0 -8 2 1 6 6 2 9 10 6 15 -4 7 -2 8 5 4 6 -4 9 -12 6 -17z
m40 1 c-10 -11 -23 -20 -29 -19 -6 0 -6 3 2 6 6 2 9 10 6 15 -4 6 -2 8 4 4 6
-3 13 -2 17 4 3 5 9 10 12 10 3 0 -2 -9 -12 -20z m-50 -30 c-3 -5 -12 -10 -18
-10 -7 0 -6 4 3 10 19 12 23 12 15 0z m-35 -7 c0 -5 -7 -17 -15 -27 -10 -14
-12 -23 -4 -32 8 -9 4 -16 -13 -25 -21 -11 -22 -11 -9 5 8 9 11 19 8 22 -7 7
-57 -59 -57 -76 0 -7 -3 -10 -6 -7 -4 3 -16 2 -27 -4 -28 -15 -15 4 42 64 25
26 46 51 46 55 0 12 16 32 26 32 5 0 9 -3 9 -7z m9 -433 c5 -16 8 -30 6 -30
-3 0 -11 14 -20 30 -9 17 -11 30 -6 30 5 0 14 -13 20 -30z m101 -180 c0 -4 -6
-12 -13 -18 -10 -8 -13 -7 -14 7 -1 10 5 18 13 18 8 0 14 -4 14 -7z"/>
<path d="M651 1436 c-8 -10 -9 -35 -2 -92 l10 -79 -4 79 c-3 50 -1 84 6 92 6
8 9 14 6 14 -2 0 -10 -6 -16 -14z"/>
<path d="M679 1433 c-13 -16 -12 -17 4 -4 9 7 17 15 17 17 0 8 -8 3 -21 -13z"/>
<path d="M1095 1434 c-10 -8 -26 -12 -34 -9 -19 5 -43 -8 -39 -21 1 -5 -6 -24
-15 -42 -17 -30 -17 -35 -1 -67 18 -39 67 -85 90 -85 9 0 13 -4 10 -9 -4 -5 3
-7 14 -4 35 9 33 23 -7 39 -46 19 -85 53 -76 67 3 6 1 7 -5 3 -16 -10 -25 30
-12 54 13 25 68 60 93 60 9 0 17 4 17 9 0 17 -15 19 -35 5z m45 -220 c0 -2 -7
-4 -15 -4 -8 0 -15 4 -15 10 0 5 7 7 15 4 8 -4 15 -8 15 -10z"/>
<path d="M1107 1403 c-11 -11 -8 -25 4 -17 7 4 9 0 5 -14 -4 -12 -2 -30 4 -42
8 -15 8 -20 -1 -20 -7 0 -10 -2 -8 -5 3 -2 14 -2 26 1 14 4 19 11 16 25 -3 10
-10 16 -16 12 -6 -3 -7 -1 -3 5 8 13 -3 62 -13 62 -4 0 -11 -3 -14 -7z"/>
<path d="M1072 1342 c2 -27 8 -49 14 -49 6 0 11 6 11 14 0 7 -5 13 -10 13 -5
0 -6 15 -3 35 5 23 3 35 -4 35 -7 0 -10 -18 -8 -48z"/>
<path d="M1032 1340 c0 -14 2 -19 5 -12 2 6 2 18 0 25 -3 6 -5 1 -5 -13z"/>
<path d="M2265 1255 c0 -55 2 -62 13 -48 6 9 12 31 12 48 0 17 -6 39 -12 48
-11 15 -13 7 -13 -48z"/>
<path d="M1050 1286 c0 -2 8 -10 18 -17 15 -13 16 -12 3 4 -13 16 -21 21 -21
13z"/>
<path d="M1676 1249 c2 -4 -10 -12 -27 -19 l-31 -13 23 -12 c16 -9 31 -10 51
-3 41 14 34 27 -9 17 -51 -11 -54 -3 -4 12 46 14 53 24 17 24 -13 0 -22 -3
-20 -6z"/>
<path d="M1270 1240 c0 -13 26 -19 41 -9 8 5 10 9 4 10 -5 0 -18 2 -27 4 -10
2 -18 0 -18 -5z"/>
<path d="M1157 1206 c-4 -10 0 -12 14 -9 22 6 26 23 5 23 -8 0 -16 -6 -19 -14z"/>
<path d="M1717 1203 c-38 -19 -29 -25 24 -17 24 4 37 10 29 12 -8 3 -17 8 -20
13 -3 4 -18 0 -33 -8z"/>
<path d="M1775 1170 c11 -5 27 -9 35 -9 9 0 8 4 -5 9 -11 5 -27 9 -35 9 -9 0
-8 -4 5 -9z"/>
<path d="M1695 1150 c-7 -11 35 -31 48 -23 9 5 -17 33 -32 33 -5 0 -13 -5 -16
-10z"/>
<path d="M1990 1095 c-6 -8 -10 -19 -8 -24 1 -6 8 1 15 14 13 28 11 31 -7 10z"/>
<path d="M2008 1035 c3 -17 0 -25 -10 -25 -11 0 -14 -11 -11 -42 2 -31 0 -39
-7 -28 -8 12 -10 11 -10 -7 0 -12 -2 -30 -5 -40 -3 -11 -1 -9 6 5 7 12 16 22
21 22 4 0 8 18 8 41 0 24 4 38 10 34 6 -4 10 8 10 29 0 20 -4 36 -9 36 -4 0
-6 -11 -3 -25z"/>
<path d="M673 1018 c-10 -22 -8 -126 2 -136 5 -5 9 77 7 123 0 11 2 14 4 7 8
-17 24 -5 17 13 -8 21 -18 18 -30 -7z"/>
<path d="M700 977 c0 -37 128 -250 236 -393 13 -17 21 -34 16 -39 -4 -5 -2 -5
5 -2 11 7 55 -53 60 -81 2 -19 13 -28 13 -12 0 10 4 10 17 -1 10 -8 7 1 -8 21
-14 19 -64 87 -111 150 -97 131 -159 229 -199 315 -16 33 -28 52 -29 42z"/>
<path d="M692 905 c-1 -22 5 -49 13 -59 14 -18 15 -17 14 20 -1 30 -3 33 -7
14 -5 -20 -7 -17 -13 20 l-6 45 -1 -40z"/>
<path d="M800 935 c0 -18 54 -148 58 -137 2 6 -10 42 -27 79 -17 37 -31 64
-31 58z"/>
<path d="M1941 884 c0 -11 3 -14 6 -6 3 7 2 16 -1 19 -3 4 -6 -2 -5 -13z"/>
<path d="M900 875 c0 -5 5 -17 10 -25 5 -8 10 -10 10 -5 0 6 -5 17 -10 25 -5
8 -10 11 -10 5z"/>
<path d="M1806 815 c-14 -13 -26 -30 -26 -37 0 -7 3 -8 8 -2 4 5 18 21 31 37
30 34 23 35 -13 2z"/>
<path d="M1901 824 c0 -11 3 -14 6 -6 3 7 2 16 -1 19 -3 4 -6 -2 -5 -13z"/>
<path d="M740 815 c0 -11 5 -27 10 -35 8 -12 10 -12 10 5 0 11 -5 27 -10 35
-8 12 -10 12 -10 -5z"/>
<path d="M1882 810 c0 -14 2 -19 5 -12 2 6 2 18 0 25 -3 6 -5 1 -5 -13z"/>
<path d="M861 764 c0 -11 3 -14 6 -6 3 7 2 16 -1 19 -3 4 -6 -2 -5 -13z"/>
<path d="M1750 765 c-7 -9 -11 -18 -8 -20 3 -3 11 1 18 10 7 9 11 18 8 20 -3
3 -11 -1 -18 -10z"/>
<path d="M765 760 c-3 -5 -1 -10 4 -10 6 0 11 5 11 10 0 6 -2 10 -4 10 -3 0
-8 -4 -11 -10z"/>
<path d="M1803 748 c-31 -38 -40 -74 -32 -128 l7 -55 -1 51 c0 33 7 66 21 94
21 44 24 62 5 38z"/>
<path d="M811 703 c-1 -17 16 -25 25 -12 4 7 3 9 -4 5 -5 -3 -13 0 -15 6 -4 9
-6 10 -6 1z"/>
<path d="M855 643 c18 -42 25 -52 25 -34 0 14 -28 71 -35 71 -3 0 2 -17 10
-37z"/>
<path d="M1530 656 c-20 -13 -41 -31 -49 -39 -8 -11 -23 -15 -44 -12 -27 4
-28 4 -7 -3 l25 -8 -32 -12 c-35 -12 -45 -25 -15 -20 9 1 23 -1 30 -5 8 -5 12
-2 12 9 0 12 6 15 25 12 19 -4 23 -2 15 7 -16 20 65 82 100 77 13 -3 13 -2 0
7 -19 14 -19 14 -60 -13z"/>
<path d="M1535 628 c-51 -38 -51 -37 -27 -35 11 0 19 4 16 8 -6 10 28 22 56
20 14 -2 22 0 18 5 -4 4 0 14 10 22 12 10 8 9 -10 -2 -29 -17 -54 -23 -28 -6
8 5 12 11 10 13 -3 2 -23 -9 -45 -25z"/>
<path d="M1064 604 c-7 -3 1 -19 19 -39 22 -25 33 -32 39 -23 7 12 12 4 9 -14
0 -4 9 -12 22 -18 20 -10 21 -10 4 3 -10 9 -14 18 -8 21 5 3 16 0 24 -8 8 -8
19 -11 26 -6 7 4 23 5 35 2 11 -3 18 -1 14 3 -4 4 -20 8 -35 7 -35 -1 -139 50
-135 66 1 7 1 12 0 11 -2 0 -8 -3 -14 -5z"/>
<path d="M1297 599 c7 -7 15 -10 18 -7 3 3 -2 9 -12 12 -14 6 -15 5 -6 -5z"/>
<path d="M1298 513 c23 -2 59 -2 80 0 20 2 1 4 -43 4 -44 0 -61 -2 -37 -4z"/>
<path d="M970 499 c0 -5 -6 -7 -12 -3 -7 4 -9 3 -5 -1 13 -15 36 -14 30 1 -6
17 -13 18 -13 3z"/>
<path d="M1260 486 c14 -14 105 -20 126 -8 14 8 1 11 -58 14 -45 2 -73 -1 -68
-6z"/>
<path d="M1287 428 c-13 -10 -15 -20 -9 -43 l8 -30 11 43 c6 23 10 42 9 42 -1
0 -10 -6 -19 -12z"/>
<path d="M1483 385 c0 -22 2 -30 4 -17 2 12 2 30 0 40 -3 9 -5 -1 -4 -23z"/>
<path d="M1501 373 c0 -24 3 -43 8 -43 5 0 7 -8 4 -19 -3 -10 1 -22 8 -26 8
-5 10 -4 5 4 -4 6 -2 18 4 26 14 17 35 21 25 5 -3 -5 0 -7 8 -4 12 4 13 11 4
35 -11 27 -13 28 -24 12 -15 -20 -29 -10 -36 27 -3 16 -5 10 -6 -17z"/>
<path d="M1418 337 c3 -33 1 -39 -8 -27 -10 13 -11 12 -6 -3 3 -10 6 -20 6
-21 0 -2 11 -1 24 1 21 4 23 8 16 29 -5 13 -7 32 -3 41 3 10 3 15 -2 11 -4 -4
-13 -4 -19 1 -8 7 -10 -2 -8 -32z"/>
<path d="M1680 365 c-7 -9 -8 -15 -2 -15 5 0 12 7 16 15 3 8 4 15 2 15 -2 0
-9 -7 -16 -15z"/>
<path d="M1461 344 c0 -11 3 -14 6 -6 3 7 2 16 -1 19 -3 4 -6 -2 -5 -13z"/>
<path d="M1481 333 c0 -4 4 -17 9 -28 8 -19 9 -19 9 2 1 12 -3 25 -9 28 -5 3
-10 3 -9 -2z"/>
<path d="M1460 311 c0 -6 5 -13 10 -16 6 -3 10 1 10 9 0 9 -4 16 -10 16 -5 0
-10 -4 -10 -9z"/>
<path d="M1225 300 c3 -5 8 -10 11 -10 2 0 4 5 4 10 0 6 -5 10 -11 10 -5 0 -7
-4 -4 -10z"/>
<path d="M1743 254 c-6 -21 -8 -46 -3 -58 7 -18 9 -16 15 15 4 20 5 46 3 59
-2 17 -5 14 -15 -16z"/>
<path d="M1577 273 c-4 -3 -7 -11 -7 -17 0 -6 5 -5 12 2 6 6 9 14 7 17 -3 3
-9 2 -12 -2z"/>
<path d="M1705 225 c1 -14 -2 -25 -7 -25 -5 0 -6 -4 -3 -10 3 -5 1 -10 -4 -10
-6 0 -11 -7 -11 -16 0 -8 -4 -12 -10 -9 -6 4 -7 -1 -3 -11 4 -11 3 -15 -4 -11
-7 5 -9 -1 -5 -15 3 -12 1 -19 -5 -15 -5 3 -10 -1 -10 -10 0 -12 5 -11 19 7
21 25 23 17 7 -29 -11 -30 -12 -31 -26 -14 -8 10 -11 12 -7 4 3 -7 2 -16 -4
-20 -20 -12 -17 -33 5 -37 19 -3 24 3 33 37 6 23 16 52 21 66 6 16 5 22 -1 18
-6 -3 -10 1 -10 10 0 10 5 13 12 9 8 -5 9 -2 5 10 -4 10 -3 15 3 11 6 -3 11 2
11 12 1 10 3 28 4 41 1 12 -1 25 -5 27 -5 3 -7 -6 -5 -20z m-57 -201 c-1 -5
-9 -9 -16 -10 -10 -2 -11 1 -1 12 12 14 24 13 17 -2z"/>
<path d="M1561 175 c0 -11 6 -29 15 -40 13 -17 16 -18 24 -5 12 19 12 27 0 35
-6 3 -7 -1 -4 -9 10 -26 -4 -18 -20 12 -13 22 -15 24 -15 7z"/>
<path d="M980 160 c-19 -11 -70 -31 -113 -45 -76 -24 -146 -59 -196 -97 l-23
-18 40 3 c22 1 38 5 36 8 -2 4 5 14 16 24 17 15 22 16 37 4 16 -13 17 -12 5 2
-10 14 -10 18 3 23 9 3 14 2 11 -2 -2 -4 4 -8 14 -8 13 0 16 4 9 12 -12 15 11
25 42 17 14 -4 20 -2 15 5 -3 6 -1 14 5 18 8 5 9 3 4 -6 -6 -10 -3 -12 13 -8
12 4 24 2 28 -3 3 -5 18 1 34 13 17 12 33 19 36 15 3 -3 -9 -15 -27 -27 l-34
-21 30 7 c17 4 33 9 36 13 5 5 20 92 16 91 -1 -1 -18 -10 -37 -20z"/>
<path d="M1770 165 c0 -8 4 -15 10 -15 5 0 7 7 4 15 -4 8 -8 15 -10 15 -2 0
-4 -7 -4 -15z"/>
<path d="M1727 153 c4 -10 2 -14 -4 -10 -5 3 -10 0 -10 -8 0 -11 4 -12 14 -4
15 13 18 39 3 39 -5 0 -6 -7 -3 -17z"/>
<path d="M1025 79 c6 -66 10 -79 26 -79 5 0 9 30 9 66 0 41 -4 63 -10 59 -5
-3 -10 -1 -10 4 0 6 -5 11 -10 11 -7 0 -9 -22 -5 -61z m22 -1 c-3 -7 -5 -2 -5
12 0 14 2 19 5 13 2 -7 2 -19 0 -25z"/>
<path d="M1140 117 c0 -12 -4 -16 -12 -11 -9 6 -9 3 0 -9 8 -9 11 -20 9 -24
-3 -5 8 -24 25 -43 16 -19 26 -29 22 -21 -4 8 -8 30 -9 50 -2 20 -1 30 2 23 3
-6 8 -10 12 -8 4 3 13 0 21 -6 12 -8 11 -9 -4 -4 -14 5 -17 2 -12 -9 3 -9 2
-13 -4 -10 -11 7 -14 -8 -3 -19 4 -4 16 3 26 16 14 17 17 19 13 5 -3 -11 -2
-16 4 -12 6 3 10 2 10 -4 0 -5 -4 -13 -10 -16 -5 -3 -10 -1 -10 6 0 10 -3 10
-12 1 -17 -17 0 -28 21 -15 11 7 22 9 25 5 4 -3 13 -7 22 -8 11 -2 8 9 -12 44
-33 57 -39 64 -29 34 l7 -24 -29 18 c-15 10 -31 22 -34 27 -9 12 -19 -20 -13
-38 5 -11 2 -13 -10 -9 -12 5 -13 10 -5 25 7 13 7 25 0 37 -10 16 -10 16 -11
-1z m129 -102 c0 -5 -6 -1 -14 9 -8 11 -15 24 -15 30 0 5 7 1 15 -10 8 -10 14
-23 14 -29z"/>
<path d="M1760 108 c0 -8 7 -15 15 -15 18 0 15 19 -3 25 -7 2 -12 -3 -12 -10z"/>
<path d="M1540 102 c0 -7 -3 -11 -7 -11 -5 1 -15 1 -22 0 -12 -1 -12 -4 -3
-13 10 -9 16 -8 29 5 9 9 14 20 10 23 -4 4 -7 2 -7 -4z"/>
<path d="M1697 80 c-4 -18 -5 -35 -2 -38 3 -3 5 2 5 12 0 9 5 14 10 11 12 -7
12 2 1 30 -7 16 -9 14 -14 -15z"/>
<path d="M1721 100 c0 -8 4 -22 9 -30 9 -13 10 -13 10 0 0 13 1 13 10 0 6 -9
6 -18 0 -24 -6 -6 -10 -19 -9 -31 1 -17 2 -16 8 5 4 14 13 24 19 23 15 -4 16
14 1 22 -6 4 -14 17 -19 29 -8 20 -9 20 -10 1 -1 -20 -1 -20 -10 0 -6 13 -9
15 -9 5z"/>
<path d="M1479 73 c12 -24 31 -39 31 -25 0 5 -10 17 -21 28 -22 19 -22 19 -10
-3z"/>
<path d="M835 70 c3 -5 8 -10 11 -10 2 0 4 5 4 10 0 6 -5 10 -11 10 -5 0 -7
-4 -4 -10z"/>
<path d="M833 43 c-40 -21 -71 -39 -69 -40 5 -5 135 58 142 68 8 13 6 12 -73
-28z"/>
<path d="M920 68 c0 -8 -18 -23 -40 -33 -22 -10 -40 -22 -40 -27 0 -12 14 -10
36 7 25 19 45 19 38 0 -9 -22 18 -19 60 6 23 13 36 29 36 41 0 18 -2 19 -21 7
-11 -8 -20 -18 -21 -24 0 -14 -18 -35 -30 -35 -5 0 -6 6 -1 13 13 20 12 36 -3
48 -11 9 -14 8 -14 -3z m80 -12 c0 -3 -4 -8 -10 -11 -5 -3 -10 -1 -10 4 0 6 5
11 10 11 6 0 10 -2 10 -4z"/>
<path d="M1076 44 c-4 -20 -5 -38 -3 -40 3 -3 8 11 11 32 4 20 5 38 3 40 -3 3
-8 -11 -11 -32z"/>
<path d="M1718 25 c2 -14 6 -25 8 -25 2 0 4 11 4 25 0 14 -4 25 -9 25 -4 0 -6
-11 -3 -25z"/>
<path d="M2010 40 c0 -6 -4 -8 -10 -5 -5 3 -10 2 -10 -4 0 -5 -9 -13 -21 -16
-11 -4 -18 -9 -16 -12 3 -2 22 4 43 15 23 12 33 22 25 26 -6 4 -11 2 -11 -4z"/>
<path d="M1681 14 c0 -11 3 -14 6 -6 3 7 2 16 -1 19 -3 4 -6 -2 -5 -13z"/>
<path d="M1701 14 c0 -11 3 -14 6 -6 3 7 2 16 -1 19 -3 4 -6 -2 -5 -13z"/>
<path d="M995 10 c3 -5 10 -10 16 -10 5 0 9 5 9 10 0 6 -7 10 -16 10 -8 0 -12
-4 -9 -10z"/>
</g>
</svg>
